<?xml version="1.0" encoding="UTF-8"?>
<svg version="1.1" xmlns="http://www.w3.org/2000/svg" width="828" height="301">
<path d="M0 0 C4.06236402 -0.08729047 8.12448589 -0.14048992 12.1875 -0.1875 C13.91323242 -0.22520508 13.91323242 -0.22520508 15.67382812 -0.26367188 C17.34155273 -0.27817383 17.34155273 -0.27817383 19.04296875 -0.29296875 C20.06414795 -0.3086792 21.08532715 -0.32438965 22.13745117 -0.34057617 C26.39759038 0.16628048 28.92684088 1.75354806 31.70996094 4.98608398 C32.21301758 5.73188721 32.71607422 6.47769043 33.234375 7.24609375 C34.08854004 8.49302002 34.08854004 8.49302002 34.95996094 9.76513672 C35.84603027 11.08795654 35.84603027 11.08795654 36.75 12.4375 C37.99847203 14.26276481 39.24846757 16.0869885 40.5 17.91015625 C41.10199219 18.79074707 41.70398438 19.67133789 42.32421875 20.57861328 C45.04408762 24.5086336 47.93065513 28.2979704 50.82421875 32.1015625 C54.99261589 37.65443625 58.98593152 43.33505158 63 49 C67.10871538 45.08765704 70.57235539 40.89021227 74 36.375 C74.55961426 35.64224854 75.11922852 34.90949707 75.69580078 34.15454102 C80.50449429 27.79238317 85.02486145 21.24959408 89.421875 14.59716797 C90.41768343 13.10635761 91.43336499 11.62860992 92.46948242 10.16552734 C93.50321464 8.70290096 94.4900633 7.20616602 95.4309082 5.68212891 C97.99144268 2.03113836 99.71087995 0.25356655 104.17871094 -0.62524414 C107.96402379 -0.7879301 111.65425787 -0.69861544 115.4375 -0.5 C117.39333008 -0.44585937 117.39333008 -0.44585937 119.38867188 -0.390625 C122.59548584 -0.29665243 125.7962071 -0.16538988 129 0 C127.61152674 3.63170784 126.21130237 6.22054603 123.6875 9.1875 C114.5797754 20.28805403 106.47997646 32.22955029 98.26782227 43.99926758 C95.99053751 47.24875565 93.68234233 50.44642819 91.21484375 53.5546875 C90.78655273 54.09883301 90.35826172 54.64297852 89.91699219 55.20361328 C88.77414194 56.6410266 87.61241078 58.06337253 86.44921875 59.484375 C84.77983446 61.8801939 84.77983446 61.8801939 85.0546875 64.51953125 C86.15686558 67.41161011 87.55450377 69.4786176 89.4375 71.9375 C90.52417969 73.38382813 90.52417969 73.38382813 91.6328125 74.859375 C92.80457031 76.41398437 92.80457031 76.41398437 94 78 C95.61902807 80.21861841 97.21751446 82.4515537 98.8125 84.6875 C99.22870605 85.26927002 99.64491211 85.85104004 100.07373047 86.45043945 C103.29511143 90.96930409 106.43449872 95.54119938 109.5625 100.125 C116.53146099 111.9737577 116.53146099 111.9737577 126 121 C126.23589844 120.22527344 126.47179687 119.45054687 126.71484375 118.65234375 C128.40983117 113.83528224 130.4830974 109.22430094 132.5625 104.5625 C133.55678014 102.31936067 134.5502113 100.0758449 135.54296875 97.83203125 C135.94651581 96.92056839 135.94651581 96.92056839 136.35821533 95.99069214 C138.60844116 90.90192334 140.83294921 85.80217832 143.05078125 80.69921875 C143.57764023 79.4870594 143.57764023 79.4870594 144.11514282 78.25041199 C144.83691328 76.5896488 145.55866399 74.92887703 146.28039551 73.26809692 C153.32388414 57.06481329 160.47413537 40.91433973 167.7355957 24.80761719 C170.92824748 17.71831511 174.01282867 10.60631484 176.94921875 3.40625 C178 1 178 1 179 0 C183.03434188 -0.28296128 187.08193131 -0.23191021 191.125 -0.25 C192.25421875 -0.270625 193.3834375 -0.29125 194.546875 -0.3125 C202.36656165 -0.34912617 207.57292489 -0.11218307 213.55078125 5.31640625 C217.48634998 10.54190456 219.68233247 16.93893956 222.1875 22.9375 C222.7638799 24.29530544 223.34136791 25.65264098 223.91992188 27.00952148 C225.0806362 29.73455802 226.23658562 32.46152836 227.38818359 35.19042969 C229.55875178 40.32895028 231.77452864 45.44755362 234 50.5625 C234.39131104 51.46516602 234.78262207 52.36783203 235.18579102 53.29785156 C237.49380088 58.60436911 239.84350515 63.89085626 242.2265625 69.1640625 C242.64423386 70.08862999 242.64423386 70.08862999 243.07034302 71.03187561 C243.49064285 71.96222878 243.49064285 71.96222878 243.91943359 72.91137695 C244.48800147 74.17006397 245.05652365 75.42877164 245.625 76.6875 C245.904505 77.30619965 246.18401001 77.92489929 246.47198486 78.56234741 C250.30072497 87.05105444 253.92922406 95.59144416 257.30712891 104.26977539 C259.60475814 110.13797756 262.158266 115.84665775 264.91943359 121.51123047 C267 125.80813216 267 125.80813216 267 128 C261.70475989 128.88254002 256.61351314 129.15308122 251.25 129.125 C250.11884766 129.13080078 250.11884766 129.13080078 248.96484375 129.13671875 C245.71797795 129.13095167 243.10112935 129.03370978 240 128 C238.55452941 125.36728456 237.28322697 122.7969284 236.0625 120.0625 C235.70986084 119.29357422 235.35722168 118.52464844 234.99389648 117.73242188 C232.73966201 112.7769612 230.61091442 107.7832347 228.69140625 102.6875 C228.12555664 100.99681397 228.12555664 100.99681397 227 100 C224.97505769 99.90590521 222.9468013 99.88256878 220.91967773 99.88647461 C219.61840439 99.88655014 218.31713104 99.88662567 216.97642517 99.88670349 C215.54548098 99.89181091 214.11453718 99.89702692 212.68359375 99.90234375 C211.2277074 99.90420797 209.77182043 99.90563185 208.31593323 99.90663147 C204.47720621 99.91045635 200.63851681 99.92028636 196.79980469 99.93133545 C192.88542184 99.94155022 188.97103294 99.94612923 185.05664062 99.95117188 C177.37107657 99.96190866 169.68554355 99.97898471 162 100 C161.67725098 100.74161377 161.35450195 101.48322754 161.02197266 102.24731445 C159.55929677 105.60368489 158.09220334 108.95810637 156.625 112.3125 C156.11710938 113.47974609 155.60921875 114.64699219 155.0859375 115.84960938 C154.35117187 117.52700195 154.35117187 117.52700195 153.6015625 119.23828125 C153.15119629 120.26993408 152.70083008 121.30158691 152.23681641 122.36450195 C151 125 151 125 149 128 C147.15289307 128.50334167 147.15289307 128.50334167 144.93847656 128.67260742 C144.13124146 128.73684906 143.32400635 128.8010907 142.49230957 128.86727905 C138.65469135 129.07164063 134.82732961 129.20136944 130.984375 129.23828125 C130.16551819 129.246353 129.34666138 129.25442474 128.50299072 129.26274109 C126.78879845 129.27645504 125.07458033 129.28723277 123.36035156 129.29516602 C121.61287392 129.3067701 119.86543396 129.32735218 118.11816406 129.35668945 C115.57332669 129.39929382 113.02952422 129.41551323 110.484375 129.42578125 C109.7072113 129.44328934 108.93004761 129.46079742 108.1293335 129.47883606 C104.4245465 129.4640163 102.25867012 129.16552354 99.10839844 127.1496582 C96.59133693 124.5833397 94.51753499 121.83537549 92.5 118.875 C91.62834534 117.62578459 90.75590898 116.37711437 89.8828125 115.12890625 C89.42036133 114.46391113 88.95791016 113.79891602 88.48144531 113.11376953 C85.27399287 108.53728251 81.97846828 104.02342395 78.69750977 99.49951172 C76.28780421 96.17481443 73.8839299 92.84857691 71.53515625 89.48046875 C70.49681641 88.00513672 70.49681641 88.00513672 69.4375 86.5 C68.85871094 85.6646875 68.27992188 84.829375 67.68359375 83.96875 C65.89901886 81.88191532 64.4564583 81.13691511 62 80 C57.69183332 84.88344116 53.8291676 89.89831982 50.125 95.25 C49.0695676 96.75950432 48.01357795 98.26861916 46.95703125 99.77734375 C46.44994629 100.5029248 45.94286133 101.22850586 45.42041016 101.97607422 C42.968645 105.46956565 40.46727171 108.92495082 37.93359375 112.359375 C36.50511725 114.31018331 35.10572092 116.28236246 33.72265625 118.265625 C32.94039402 119.36478967 32.15784758 120.46375214 31.375 121.5625 C30.68148437 122.55378906 29.98796875 123.54507813 29.2734375 124.56640625 C25.93703171 128.13785093 23.20982352 128.87937108 18.36572266 129.14379883 C15.28229966 129.19704832 12.20843481 129.17436534 9.125 129.125 C8.05507813 129.11597656 6.98515625 129.10695312 5.8828125 129.09765625 C3.25497561 129.07419342 0.62760594 129.04136459 -2 129 C-1.38623866 125.64658433 -0.19083489 123.62023633 1.88671875 120.9375 C2.48814697 120.15109131 3.0895752 119.36468262 3.70922852 118.55444336 C4.36205811 117.71147705 5.0148877 116.86851074 5.6875 116 C11.5762745 108.28132067 17.26058758 100.46150643 22.76464844 92.46435547 C25.75514276 88.13897135 28.81317263 83.8961146 32.0234375 79.73046875 C32.67820068 78.87396729 33.33296387 78.01746582 34.00756836 77.13500977 C35.26445382 75.50034317 36.53549906 73.87643623 37.82250977 72.26538086 C41.17914196 67.9762379 41.17914196 67.9762379 42.09375 62.7421875 C40.91576092 59.78880059 39.65378205 57.89003663 37.5625 55.5 C34.3331206 51.64760758 31.2792739 47.72647357 28.375 43.625 C27.96652832 43.04959473 27.55805664 42.47418945 27.13720703 41.88134766 C24.59811835 38.29107434 22.08131886 34.68535935 19.56640625 31.078125 C18.97053711 30.22395996 18.37466797 29.36979492 17.76074219 28.48974609 C16.55043144 26.75401657 15.34143494 25.01736984 14.13378906 23.27978516 C10.08656105 17.47905599 5.89280509 11.83681801 1.4765625 6.3125 C0 4 0 4 0 0 Z M194 25 C188.35720062 35.5184508 183.61256932 46.37637785 179 57.375 C178.70324371 58.07956329 178.40648743 58.78412659 178.10073853 59.51004028 C177.25004173 61.53344872 176.40506917 63.55913298 175.5625 65.5859375 C175.06878906 66.7723584 174.57507813 67.9587793 174.06640625 69.18115234 C172.88205384 71.80946514 172.88205384 71.80946514 173 74 C180.91011762 75.08688639 188.71078349 75.14908671 196.6875 75.125 C198.62592773 75.13080078 198.62592773 75.13080078 200.60351562 75.13671875 C201.85197266 75.13542969 203.10042969 75.13414062 204.38671875 75.1328125 C206.07607544 75.13112061 206.07607544 75.13112061 207.79956055 75.12939453 C210.94611619 75.00217854 213.90922595 74.5875242 217 74 C214.65569887 66.58419409 211.79372961 59.46705867 208.75 52.3125 C208.0223645 50.59571045 208.0223645 50.59571045 207.2800293 48.84423828 C203.81228786 40.73270373 200.14811471 32.78656345 196 25 C195.34 25 194.68 25 194 25 Z " fill="#46166D" transform="translate(529,87)"/>
<path d="M0 0 C5.92841361 4.65894603 8.84452568 10.20220764 9.94921875 17.62109375 C10.38899133 24.77839256 8.68497621 31.0893546 4.13671875 36.68359375 C-0.62129464 41.97460863 -6.00170192 43.56523673 -12.8515625 44.6015625 C-16.85316195 44.78594504 -19.92011159 43.98160147 -23.63671875 42.5703125 C-26.52105222 41.55935841 -28.92078565 40.90025912 -31.98828125 40.74609375 C-34.6801464 42.26186393 -34.6801464 42.26186393 -37.11328125 44.62109375 C-40.10601686 47.29641801 -42.98634308 49.82537696 -46.40234375 51.9296875 C-52.53172094 55.66061371 -52.53172094 55.66061371 -55.87109375 61.69921875 C-55.859593 66.27651787 -55.12075873 69.40292278 -52.140625 72.9375 C-49.5392731 75.08719814 -46.79982392 76.88005718 -43.98828125 78.74609375 C-42.84792213 79.69628161 -41.71811201 80.65923416 -40.59765625 81.6328125 C-37.18790732 84.50477748 -34.04828643 86.85142466 -29.98828125 88.74609375 C-26.58107811 88.19826893 -24.49647363 87.02986505 -21.5703125 85.23046875 C-17.38455902 82.82413544 -13.65522304 82.83618686 -8.98828125 83.74609375 C-1.01124422 86.49840477 3.39205334 90.33239208 7.66015625 97.5234375 C9.21122342 101.22179131 9.00411668 103.41197135 8.69921875 107.37109375 C8.8517407 111.06290715 9.05530157 113.64779219 11.53564453 116.49609375 C15.43717435 119.92967843 19.72676198 122.7627819 24.125 125.51635742 C26.01171875 126.74609375 26.01171875 126.74609375 28.87109375 129.0859375 C30.88972379 131.01280808 30.88972379 131.01280808 33.51171875 130.68359375 C36.24399216 129.65899122 38.53813051 128.28372968 41.01171875 126.74609375 C41.67171875 126.74609375 42.33171875 126.74609375 43.01171875 126.74609375 C43.0666885 121.72781357 43.06913641 116.71320382 43.02392578 111.69482422 C43.01583875 109.98975405 43.02184401 108.2845543 43.04248047 106.57958984 C43.53255694 96.98800472 43.53255694 96.98800472 40.28271484 88.38183594 C38.25220742 86.88429584 36.26697771 85.85837217 34.01171875 84.74609375 C28.27269926 79.28474441 25.98744603 74.32821899 25.63671875 66.37109375 C25.77996678 58.84034035 28.87460666 53.18538891 34.01171875 47.74609375 C40.84097084 42.43445324 46.98562978 41.2136127 55.4296875 42.20703125 C61.65811627 43.50736888 66.69344216 48.29201723 70.17578125 53.48046875 C73.86080426 59.68403267 75.2961936 65.70264102 73.48046875 72.83203125 C70.7607294 80.54781354 66.90638687 85.40500642 60.01171875 89.74609375 C59.35171875 89.74609375 58.69171875 89.74609375 58.01171875 89.74609375 C57.81327319 94.76295019 57.66848682 99.77750356 57.57226562 104.79736328 C57.53214423 106.50284632 57.47762922 108.20805603 57.40820312 109.91259766 C56.62714863 119.47306662 56.62714863 119.47306662 59.70947266 128.09277344 C61.74708133 129.58242616 63.73763813 130.66520358 66.01171875 131.74609375 C70.86093185 136.83870364 73.65803713 141.99706859 74.32421875 149.05859375 C73.64721999 157.04717909 71.09393759 163.38596482 65.01171875 168.74609375 C59.52498572 172.98014801 53.92660502 173.33710462 47.140625 173.15625 C42.74483493 172.58002284 39.84916355 170.90901718 36.01171875 168.74609375 C32.87156932 169.09636482 30.95794952 170.31485894 28.51171875 172.24609375 C27.48691406 173.04273438 27.48691406 173.04273438 26.44140625 173.85546875 C25.63960937 174.479375 24.8378125 175.10328125 24.01171875 175.74609375 C21.88848029 177.33187085 19.7637853 178.91547647 17.63671875 180.49609375 C13.66434801 183.43713624 13.66434801 183.43713624 10.01171875 186.74609375 C9.88278682 189.11389708 9.88278682 189.11389708 10.07421875 191.80859375 C10.18829143 200.54656127 8.01608024 206.63776503 1.96484375 213.01953125 C-3.08183993 217.48079962 -9.19520997 220.05428602 -15.98828125 219.74609375 C-23.79352761 218.31947579 -30.8794687 214.13275795 -35.42578125 207.55859375 C-39.10533341 200.93539986 -39.19968094 192.59169249 -37.375 185.29296875 C-34.62009589 179.1278089 -29.61025847 174.52157278 -23.59765625 171.57421875 C-17.373541 169.34293215 -12.22508804 169.67809992 -5.98828125 171.74609375 C-5.35664063 172.12378906 -4.725 172.50148437 -4.07421875 172.890625 C-0.97797588 174.16043247 0.81894857 173.67698828 4.01171875 172.74609375 C6.28815238 171.24635894 8.30330374 169.78494108 10.38671875 168.05859375 C11.52211905 167.13249581 12.65883592 166.2080096 13.796875 165.28515625 C14.34359863 164.84075195 14.89032227 164.39634766 15.45361328 163.93847656 C17.46388696 162.40005966 19.63790821 161.20407011 21.82421875 159.93359375 C24.32898489 158.02391243 24.96836781 156.87545017 25.984375 153.84375 C26.4560026 149.9196252 26.34515458 147.48322311 25.01171875 143.74609375 C21.6383285 139.91589024 17.17383336 137.43264808 12.81005859 134.88452148 C10.96236149 133.71484845 9.35471102 132.42633649 7.69921875 131 C5.26888821 128.61942591 5.26888821 128.61942591 2.63671875 128.18359375 C0.11331856 128.72432236 -1.4877762 129.4738361 -3.73828125 130.68359375 C-10.17840074 134.04208597 -15.57407124 134.47181582 -22.55078125 132.37109375 C-29.30810497 129.64728489 -33.84907266 124.78906344 -37.23046875 118.3984375 C-38.19283039 115.03017175 -37.79094944 112.23407486 -37.55078125 108.74609375 C-37.73829385 104.49580814 -37.8515665 102.08517171 -40.61474609 98.83007812 C-45.32619261 94.5614918 -50.59317603 91.0844023 -55.98828125 87.74609375 C-56.95378906 87.12089844 -57.91929688 86.49570313 -58.9140625 85.8515625 C-60.90881723 84.47872547 -60.90881723 84.47872547 -62.92578125 85.30859375 C-63.60640625 85.78296875 -64.28703125 86.25734375 -64.98828125 86.74609375 C-66.04015625 87.26171875 -67.09203125 87.77734375 -68.17578125 88.30859375 C-71.7224069 91.38233598 -71.49058308 92.71037373 -71.85571289 97.15405273 C-72.08329689 101.60388575 -72.13234685 106.04109853 -72.11328125 110.49609375 C-72.11714844 111.41519531 -72.12101562 112.33429688 -72.125 113.28125 C-72.12306641 114.61736328 -72.12306641 114.61736328 -72.12109375 115.98046875 C-72.11996582 116.77678711 -72.11883789 117.57310547 -72.11767578 118.39355469 C-71.97719604 120.94763539 -71.64327985 123.27241484 -70.98828125 125.74609375 C-69.13556525 127.3178203 -69.13556525 127.3178203 -66.80078125 128.49609375 C-61.30597494 131.87886127 -57.36490857 136.5070889 -55.34765625 142.71875 C-54.13717437 149.54744667 -54.49390311 155.65911248 -57.98828125 161.74609375 C-61.66265991 166.8541447 -65.52900288 171.57064203 -71.98828125 172.74609375 C-78.92513521 173.40004538 -86.06821754 173.90998415 -92.23828125 170.2265625 C-96.25672233 166.82703311 -99.63437007 162.4539161 -101.98828125 157.74609375 C-103.29358924 141.44839119 -103.29358924 141.44839119 -98.5546875 135.359375 C-91.7245581 128.3248527 -91.7245581 128.3248527 -86.98828125 126.74609375 C-86.73950835 121.90841765 -86.55894962 117.07451911 -86.43896484 112.23193359 C-86.38892509 110.58836996 -86.32086177 108.94524602 -86.23388672 107.30322266 C-85.4470049 97.55899858 -85.4470049 97.55899858 -89.15112305 88.96557617 C-91.67284716 86.97997927 -94.24053188 85.39311024 -96.98828125 83.74609375 C-101.89589423 78.4833334 -102.8424871 73.01348044 -103.12109375 65.93359375 C-102.80908543 58.44539414 -100.38500582 53.02289111 -94.98828125 47.74609375 C-88.72702523 43.1436964 -83.86512911 41.22957914 -75.98828125 41.74609375 C-73.67651615 42.39243631 -71.44740107 43.1521627 -69.19921875 43.9921875 C-66.73845223 44.8312828 -64.58027978 45.45822853 -61.98828125 45.74609375 C-59.87323902 44.7798381 -59.87323902 44.7798381 -57.9921875 43.140625 C-56.90647461 42.28307617 -56.90647461 42.28307617 -55.79882812 41.40820312 C-55.05697266 40.79783203 -54.31511719 40.18746094 -53.55078125 39.55859375 C-52.0741809 38.37602386 -50.59633928 37.19500202 -49.1171875 36.015625 C-48.06640015 35.15807617 -48.06640015 35.15807617 -46.99438477 34.28320312 C-45.20934413 32.91547575 -43.44951767 31.85097225 -41.48828125 30.765625 C-38.64983407 28.91844271 -38.64983407 28.91844271 -38.359375 25.42578125 C-38.38128906 24.17023438 -38.40320313 22.9146875 -38.42578125 21.62109375 C-38.27377559 13.72922755 -36.82316553 7.59705721 -31.125 1.875 C-21.8296574 -5.65152012 -10.1338254 -6.39088007 0 0 Z M-22.98828125 14.74609375 C-23.99667903 18.44355228 -24.22660289 20.85238761 -23.23828125 24.55859375 C-22.03952447 27.0349192 -22.03952447 27.0349192 -18.98828125 28.74609375 C-14.99370313 29.31254405 -11.24626373 29.24928674 -7.48828125 27.74609375 C-5.18931979 24.68081181 -4.79147324 21.47815672 -4.98828125 17.74609375 C-6.56258889 14.12518619 -7.67711051 12.95354091 -10.98828125 10.74609375 C-16.38272502 10.14671111 -19.35335029 10.57661412 -22.98828125 14.74609375 Z M-85.98828125 59.74609375 C-88.20753211 63.07497004 -88.74719058 64.88545883 -88.46484375 68.80859375 C-87.59104966 72.36106807 -85.97210955 73.75687489 -82.98828125 75.74609375 C-80.14951376 76.44433898 -77.82631883 76.4498813 -74.98828125 75.74609375 C-71.84169459 73.84959824 -71.84169459 73.84959824 -69.98828125 70.74609375 C-69.41660762 66.74437832 -69.61889497 64.51844689 -71.36328125 60.87109375 C-72.81588167 58.6494455 -72.81588167 58.6494455 -74.98828125 57.74609375 C-80.86392419 57.15188532 -80.86392419 57.15188532 -85.98828125 59.74609375 Z M43.57421875 58.68359375 C41.03842442 62.03084227 40.68523551 65.61063935 41.01171875 69.74609375 C42.77675189 72.66752792 43.9701951 74.22533192 47.01171875 75.74609375 C51.34499049 76.23665282 53.33172219 76.22353814 56.94921875 73.68359375 C59.53610185 69.99924509 59.64323074 68.1666777 59.01171875 63.74609375 C57.26443097 60.0180591 57.26443097 60.0180591 54.01171875 57.74609375 C48.66502689 57.3910531 48.66502689 57.3910531 43.57421875 58.68359375 Z M-21.98828125 100.74609375 C-24.71917665 105.16754345 -24.01152021 108.866031 -22.98828125 113.74609375 C-21.41681134 115.81735837 -20.39194972 116.61985286 -17.90234375 117.3984375 C-12.71136322 118.05252832 -12.71136322 118.05252832 -7.98828125 115.93359375 C-5.48595551 113.21652865 -5.48595551 113.21652865 -4.93359375 109.72265625 C-5.24383544 105.6625367 -5.45746828 103.38619175 -8.11328125 100.18359375 C-12.65569485 97.91238695 -17.81192538 97.49781696 -21.98828125 100.74609375 Z M-86.05078125 142.80859375 C-88.49323297 146.51166571 -88.68906565 148.38565749 -87.98828125 152.74609375 C-86.42587291 155.87091043 -85.24313427 157.32468789 -81.89453125 158.44921875 C-77.67324643 159.20905002 -75.65205901 159.1524883 -71.92578125 156.87109375 C-69.34748068 152.71254445 -69.06237805 149.51805639 -69.98828125 144.74609375 C-71.23828125 141.99609375 -71.23828125 141.99609375 -73.98828125 140.74609375 C-78.79886702 139.81269651 -81.94903277 140.04619171 -86.05078125 142.80859375 Z M42.44921875 142.80859375 C40.64692976 146.49153212 40.43214107 148.68905 41.01171875 152.74609375 C42.8073428 155.49938396 44.06426797 157.27236836 47.01171875 158.74609375 C51.30494734 159.23211963 53.33254514 159.20850983 56.94921875 156.74609375 C59.24174521 153.4115098 59.77703657 151.64578113 59.484375 147.68359375 C58.60598544 144.08292249 57.06239297 142.73837079 54.01171875 140.74609375 C49.40069522 139.74512423 46.17696555 139.80821218 42.44921875 142.80859375 Z M-21.98828125 187.74609375 C-24.14707323 190.39552028 -24.08306852 192.52925658 -23.80078125 195.80859375 C-23.40203245 198.33243908 -23.10926471 199.57561706 -21.61328125 201.68359375 C-17.87632753 204.12698657 -14.31889052 204.04999616 -9.98828125 203.74609375 C-6.80324555 201.98594244 -6.15531153 201.24718459 -4.98828125 197.74609375 C-4.59940364 193.54621557 -4.52919802 191.45002137 -6.86328125 187.87109375 C-9.38692777 185.34744723 -10.25564782 184.81121672 -13.80078125 184.49609375 C-17.42993281 184.78073309 -19.1312429 185.52395281 -21.98828125 187.74609375 Z " fill="#4D1973" transform="translate(133.98828125,44.25390625)"/>
<path d="M0 0 C0.85353058 0.00202423 1.70706116 0.00404846 2.5864563 0.00613403 C3.9278492 0.00350555 3.9278492 0.00350555 5.29634094 0.00082397 C8.26814688 -0.00359637 11.23989384 -0.00065567 14.21170044 0.00271606 C16.26814282 0.00204302 18.32458512 0.00107299 20.38102722 -0.00018311 C24.69788366 -0.00166037 29.01471944 0.00049519 33.33157349 0.00515747 C38.87472397 0.0108512 44.417826 0.00757819 49.96097469 0.00158501 C54.2099189 -0.00202287 58.45885155 -0.00088091 62.7077961 0.0017128 C64.75200977 0.00238162 66.79622447 0.00155519 68.84043694 -0.00076675 C71.69460718 -0.00329658 74.54869823 0.00055219 77.40286255 0.00613403 C78.68012207 0.00309769 78.68012207 0.00309769 79.98318481 0 C85.83083038 0.02126541 85.83083038 0.02126541 88.05935669 1.13552856 C88.25522579 4.94764759 88.43965234 8.76023391 88.62185669 12.57302856 C88.70596802 14.20594849 88.70596802 14.20594849 88.79177856 15.87185669 C88.84011841 16.90632935 88.88845825 17.940802 88.93826294 19.00662231 C89.00895996 20.44412842 89.00895996 20.44412842 89.08108521 21.91067505 C89.05935669 24.13552856 89.05935669 24.13552856 88.05935669 25.13552856 C85.95348368 25.24365323 83.84399816 25.28182707 81.73538208 25.29324341 C81.07520584 25.29832413 80.4150296 25.30340485 79.73484802 25.30863953 C78.29705711 25.31936324 76.8592493 25.32797553 75.4214344 25.33475876 C73.14818099 25.34651173 70.87512069 25.36595414 68.60194397 25.38787842 C62.13737374 25.4496211 55.67282246 25.50359285 49.20803833 25.53689575 C45.25802537 25.55779574 41.30836255 25.59306084 37.35854912 25.63765335 C35.850266 25.65185171 34.34192092 25.66054441 32.8335743 25.66370773 C30.72625001 25.66859531 28.61986125 25.69169465 26.51272583 25.71902466 C24.71189293 25.73115494 24.71189293 25.73115494 22.87467957 25.74353027 C21.94562302 25.87288971 21.01656647 26.00224915 20.05935669 26.13552856 C17.85743445 29.43841193 17.819757 30.41015583 17.86404419 34.24099731 C17.8704895 35.22390747 17.87693481 36.20681763 17.88357544 37.21951294 C17.90033325 38.2436731 17.91709106 39.26783325 17.93435669 40.32302856 C17.94338013 41.35879028 17.95240356 42.394552 17.96170044 43.46170044 C17.9852782 46.01988708 18.01989464 48.57755228 18.05935669 51.13552856 C25.81799967 51.98516098 33.45360619 52.25935171 41.25466919 52.19802856 C42.36873138 52.19424194 43.48279358 52.19045532 44.63061523 52.18655396 C48.14857055 52.17444534 51.6664395 52.15579084 55.18435669 52.13552856 C59.85362494 52.10903447 64.52285463 52.08903672 69.19216919 52.07302856 C70.26806305 52.06473022 71.34395691 52.05643188 72.45245361 52.04788208 C73.43793182 52.04457886 74.42341003 52.04127563 75.43875122 52.03787231 C76.30936188 52.0326355 77.17997253 52.02739868 78.07696533 52.02200317 C80.05935669 52.13552856 80.05935669 52.13552856 81.05935669 53.13552856 C81.05935669 61.05552856 81.05935669 68.97552856 81.05935669 77.13552856 C59.93935669 77.46552856 38.81935669 77.79552856 17.05935669 78.13552856 C17.38935669 86.05552856 17.71935669 93.97552856 18.05935669 102.13552856 C22.20178985 104.20674515 24.0514445 104.40261354 28.572052 104.45437622 C29.21637177 104.46442184 29.86069153 104.47446747 30.52453613 104.4848175 C32.64550925 104.51560679 34.76635639 104.53267234 36.88748169 104.54959106 C38.36151205 104.56830619 39.83553174 104.58787986 41.30953979 104.60827637 C45.18266503 104.65956742 49.05582498 104.69920919 52.92910767 104.73641968 C56.8840695 104.7764784 60.83888727 104.8275622 64.79373169 104.87771606 C72.54884861 104.97443956 80.30402148 105.05783625 88.05935669 105.13552856 C88.05935669 112.72552856 88.05935669 120.31552856 88.05935669 128.13552856 C75.69022245 128.28851659 63.32105753 128.43727645 50.95178318 128.57849216 C45.20887776 128.64422811 39.46600725 128.71185254 33.72317505 128.78372192 C28.18600296 128.85294925 22.64879414 128.91730864 17.11152458 128.9782238 C14.99389512 129.00238869 12.87628528 129.02833857 10.75869942 129.0560627 C7.80369261 129.09445229 4.84868109 129.12662135 1.89358521 129.15725708 C1.00886032 129.17020309 0.12413544 129.18314911 -0.78739929 129.19648743 C-2.83850202 129.21451961 -4.88996117 129.18080896 -6.94064331 129.13552856 C-8.66518249 127.41098939 -8.06903041 125.19941976 -8.07945251 122.89927673 C-8.0774736 122.13032578 -8.07549469 121.36137482 -8.07345581 120.56912231 C-8.0748204 119.74397629 -8.076185 118.91883026 -8.07759094 118.06867981 C-8.07967339 115.23675974 -8.07313637 112.40493872 -8.06564331 109.57302856 C-8.06442474 108.59130676 -8.06320618 107.60958496 -8.06195068 106.59811401 C-8.03095742 84.73594261 -7.78755835 62.87470498 -7.53447723 41.01417923 C-7.50304509 38.2518965 -7.47327483 35.4896 -7.44387817 32.72729492 C-7.39673735 28.3368493 -7.34433536 23.94649665 -7.28782845 19.55616188 C-7.2673921 17.91261569 -7.24861396 16.269048 -7.23153496 14.62546349 C-7.20765195 12.36587292 -7.17764026 10.10644716 -7.14596558 7.84695435 C-7.1304213 6.56974518 -7.11487701 5.29253601 -7.09886169 3.97662354 C-6.8161254 -1.10041403 -4.52388468 0.0165115 0 0 Z " fill="#46166D" transform="translate(423.9406433105469,86.86447143554688)"/>
<path d="M0 0 C4.10403363 -0.08694042 8.20783129 -0.14037149 12.3125 -0.1875 C13.47974609 -0.21263672 14.64699219 -0.23777344 15.84960938 -0.26367188 C16.96787109 -0.27333984 18.08613281 -0.28300781 19.23828125 -0.29296875 C20.26993408 -0.3086792 21.30158691 -0.32438965 22.36450195 -0.34057617 C25 0 25 0 26.65869141 1.10302734 C28.55387911 3.78333468 29.88776591 6.66059238 31.22265625 9.64453125 C31.52494644 10.3065303 31.82723663 10.96852936 32.13868713 11.65058899 C33.10038339 13.76357707 34.05137052 15.88111681 35 18 C35.30041199 18.66787537 35.60082397 19.33575073 35.91033936 20.02386475 C37.77145569 24.164023 39.61580808 28.3114451 41.45269775 32.46240234 C42.46935713 34.75947914 43.48811228 37.05561722 44.50732422 39.3515625 C47.77668183 46.7181807 51.03955493 54.08764845 54.29670715 61.45967102 C55.7274465 64.69666495 57.16034666 67.93269998 58.59353638 71.16860962 C59.27113366 72.70016513 59.94766058 74.23219474 60.62301636 75.76473999 C65.9608129 90.31693453 65.9608129 90.31693453 74 103 C76.8275989 103.75244501 76.8275989 103.75244501 80 103 C85.52029861 95.5977814 88.81966004 86.7918392 92.5 78.375 C93.21081792 76.76160396 93.92208722 75.14840671 94.63378906 73.53540039 C99.57859076 62.31197423 104.45598535 51.0592266 109.3215332 39.80126953 C112.81957346 31.71064624 116.33030777 23.62591932 119.88903809 15.5617981 C120.66906068 13.79184084 121.44445067 12.01984428 122.21972656 10.24780273 C122.68733398 9.19149658 123.15494141 8.13519043 123.63671875 7.046875 C124.25099731 5.65227051 124.25099731 5.65227051 124.87768555 4.22949219 C126 2 126 2 128 0 C130.52197266 -0.22705078 130.52197266 -0.22705078 133.6640625 -0.1953125 C134.78554688 -0.18886719 135.90703125 -0.18242188 137.0625 -0.17578125 C138.238125 -0.15902344 139.41375 -0.14226562 140.625 -0.125 C141.80835938 -0.11597656 142.99171875 -0.10695313 144.2109375 -0.09765625 C147.14082523 -0.07402812 150.0703134 -0.04108514 153 0 C152.47638381 5.29913104 151.22058289 9.18232171 148.83984375 14.01953125 C148.19886143 15.34514325 147.55941334 16.67149803 146.92138672 17.99853516 C146.59837585 18.66596741 146.27536499 19.33339966 145.94256592 20.02105713 C143.63289126 24.87028211 141.54136826 29.82068936 139.40426636 34.74765015 C137.90226465 38.2090118 136.39251031 41.66698961 134.8828125 45.125 C134.40995064 46.20831856 134.40995064 46.20831856 133.92753601 47.31352234 C128.65546288 59.37914943 123.29112693 71.4040989 117.92677307 83.4289093 C115.99567414 87.75928958 114.07278781 92.09318165 112.1577301 96.43067932 C110.97115844 99.11631258 109.78021984 101.79999499 108.58840942 104.48330688 C107.77517662 106.31819431 106.96745497 108.15552123 106.15991211 109.99291992 C100.10196884 123.60266844 100.10196884 123.60266844 95.25 126.828125 C91.47675479 128.18867015 87.97019705 128.60356016 84 128.75 C83.26031982 128.78311279 82.52063965 128.81622559 81.75854492 128.8503418 C64.38627599 129.48520877 64.38627599 129.48520877 57.4375 126.4375 C51.91119486 120.91119486 48.80811003 113.77379857 45.72265625 106.69140625 C44.93513935 104.91288741 44.1475397 103.13440522 43.35986328 101.35595703 C42.9661554 100.46128723 42.57244751 99.56661743 42.16680908 98.64483643 C40.38073071 94.59628623 38.56297326 90.56214001 36.74609375 86.52734375 C36.03747549 84.95008743 35.32898061 83.37277568 34.62060547 81.79541016 C28.25512622 67.62913027 21.86483896 53.47514227 15.39648438 39.35549927 C14.38830353 37.15404941 13.38140774 34.95201681 12.375 32.74975586 C12.0557254 32.05117966 11.73645081 31.35260345 11.40750122 30.63285828 C10.78790279 29.27716953 10.16833403 27.92146721 9.54879761 26.56575012 C7.77302681 22.68237258 5.98522346 18.8047546 4.19140625 14.9296875 C3.43963379 13.28667348 2.68827937 11.64346806 1.9375 10 C1.60862793 9.3002002 1.27975586 8.60040039 0.94091797 7.87939453 C-1.11392283 3.34176848 -1.11392283 3.34176848 0 0 Z " fill="#47166E" transform="translate(248,87)"/>
<path d="M0 0 C0.85353058 0.00202423 1.70706116 0.00404846 2.5864563 0.00613403 C3.9278492 0.00350555 3.9278492 0.00350555 5.29634094 0.00082397 C8.26814688 -0.00359637 11.23989384 -0.00065567 14.21170044 0.00271606 C16.26814282 0.00204302 18.32458512 0.00107299 20.38102722 -0.00018311 C24.69788366 -0.00166037 29.01471944 0.00049519 33.33157349 0.00515747 C38.87472397 0.0108512 44.417826 0.00757819 49.96097469 0.00158501 C54.2099189 -0.00202287 58.45885155 -0.00088091 62.7077961 0.0017128 C64.75200977 0.00238162 66.79622447 0.00155519 68.84043694 -0.00076675 C71.69460718 -0.00329658 74.54869823 0.00055219 77.40286255 0.00613403 C78.68012207 0.00309769 78.68012207 0.00309769 79.98318481 0 C85.83083038 0.02126541 85.83083038 0.02126541 88.05935669 1.13552856 C88.25522579 4.94764759 88.43965234 8.76023391 88.62185669 12.57302856 C88.70596802 14.20594849 88.70596802 14.20594849 88.79177856 15.87185669 C88.84011841 16.90632935 88.88845825 17.940802 88.93826294 19.00662231 C89.00895996 20.44412842 89.00895996 20.44412842 89.08108521 21.91067505 C89.05935669 24.13552856 89.05935669 24.13552856 88.05935669 25.13552856 C85.95348368 25.24365323 83.84399816 25.28182707 81.73538208 25.29324341 C81.07520584 25.29832413 80.4150296 25.30340485 79.73484802 25.30863953 C78.29705711 25.31936324 76.8592493 25.32797553 75.4214344 25.33475876 C73.14818099 25.34651173 70.87512069 25.36595414 68.60194397 25.38787842 C62.13737374 25.4496211 55.67282246 25.50359285 49.20803833 25.53689575 C45.25802537 25.55779574 41.30836255 25.59306084 37.35854912 25.63765335 C35.850266 25.65185171 34.34192092 25.66054441 32.8335743 25.66370773 C30.72625001 25.66859531 28.61986125 25.69169465 26.51272583 25.71902466 C24.71189293 25.73115494 24.71189293 25.73115494 22.87467957 25.74353027 C21.94562302 25.87288971 21.01656647 26.00224915 20.05935669 26.13552856 C17.85743445 29.43841193 17.819757 30.41015583 17.86404419 34.24099731 C17.8704895 35.22390747 17.87693481 36.20681763 17.88357544 37.21951294 C17.90033325 38.2436731 17.91709106 39.26783325 17.93435669 40.32302856 C17.94338013 41.35879028 17.95240356 42.394552 17.96170044 43.46170044 C17.98527809 46.01987541 18.01818639 48.57758604 18.05935669 51.13552856 C20.69935669 51.46552856 23.33935669 51.79552856 26.05935669 52.13552856 C24.49685669 53.26052856 24.49685669 53.26052856 22.05935669 54.13552856 C19.71006694 53.5274771 17.37390818 52.86473382 15.05935669 52.13552856 C14.97198933 48.40651043 14.91884187 44.67775691 14.87185669 40.94802856 C14.84671997 39.89293091 14.82158325 38.83783325 14.79568481 37.75076294 C14.78601685 36.72918091 14.77634888 35.70759888 14.76638794 34.65505981 C14.75067749 33.71766968 14.73496704 32.78027954 14.71878052 31.81448364 C15.1301453 28.57870892 16.10581264 26.73082483 18.05935669 24.13552856 C21.38863793 23.02576815 23.85963026 23.01521962 27.36672974 23.02200317 C28.66785202 23.0220787 29.9689743 23.02215424 31.30952454 23.02223206 C32.73004189 23.02733871 34.15055886 23.03255471 35.57107544 23.03787231 C37.02410331 23.03973765 38.4771318 23.04116101 39.93016052 23.04216003 C43.75241841 23.04597611 47.57463824 23.05579863 51.3968811 23.06686401 C55.2980396 23.07709769 59.19920426 23.08166185 63.10037231 23.08670044 C70.75338646 23.09742171 78.40636139 23.11501115 86.05935669 23.13552856 C86.05935669 16.20552856 86.05935669 9.27552856 86.05935669 2.13552856 C55.69935669 2.13552856 25.33935669 2.13552856 -5.94064331 2.13552856 C-5.81418595 24.45568839 -5.81418595 24.45568839 -5.66831207 46.77569771 C-5.61282101 54.75548126 -5.56031539 62.73524876 -5.51876831 70.71511841 C-5.48587396 77.03127329 -5.44605713 83.34733966 -5.39785326 89.66339695 C-5.37256262 93.00911347 -5.35078909 96.35477107 -5.33729935 99.70055771 C-5.32051886 103.43145317 -5.29150384 107.16206142 -5.25949097 110.89285278 C-5.25733078 112.00775085 -5.25517059 113.12264893 -5.25294495 114.27133179 C-5.23619972 115.79000351 -5.23619972 115.79000351 -5.21911621 117.33935547 C-5.21358545 118.22243315 -5.2080547 119.10551083 -5.20235634 120.01534843 C-5.13465396 122.35162012 -5.13465396 122.35162012 -2.94064331 124.13552856 C-3.43564331 124.63052856 -3.43564331 124.63052856 -3.94064331 125.13552856 C40.60935669 125.63052856 40.60935669 125.63052856 86.05935669 126.13552856 C86.05935669 119.53552856 86.05935669 112.93552856 86.05935669 106.13552856 C63.61935669 106.13552856 41.17935669 106.13552856 18.05935669 106.13552856 C17.72935669 104.81552856 17.39935669 103.49552856 17.05935669 102.13552856 C17.74769089 102.45895233 18.43602509 102.7823761 19.1452179 103.11560059 C22.48451879 104.2843323 25.15012045 104.41381649 28.68557739 104.45437622 C29.33004318 104.46442184 29.97450897 104.47446747 30.63850403 104.4848175 C32.75404016 104.51553792 34.86945041 104.53265305 36.98513794 104.54959106 C38.457739 104.56831174 39.93032944 104.58788582 41.40290833 104.60827637 C45.26779911 104.65950879 49.13272464 104.69918184 52.99777222 104.73641968 C56.94612154 104.77651526 60.89432745 104.8275822 64.84255981 104.87771606 C72.58140097 104.97437009 80.32029813 105.05779354 88.05935669 105.13552856 C88.05935669 112.72552856 88.05935669 120.31552856 88.05935669 128.13552856 C75.69022245 128.28851659 63.32105753 128.43727645 50.95178318 128.57849216 C45.20887776 128.64422811 39.46600725 128.71185254 33.72317505 128.78372192 C28.18600296 128.85294925 22.64879414 128.91730864 17.11152458 128.9782238 C14.99389512 129.00238869 12.87628528 129.02833857 10.75869942 129.0560627 C7.80369261 129.09445229 4.84868109 129.12662135 1.89358521 129.15725708 C1.00886032 129.17020309 0.12413544 129.18314911 -0.78739929 129.19648743 C-2.83850202 129.21451961 -4.88996117 129.18080896 -6.94064331 129.13552856 C-8.66518249 127.41098939 -8.06903041 125.19941976 -8.07945251 122.89927673 C-8.0774736 122.13032578 -8.07549469 121.36137482 -8.07345581 120.56912231 C-8.0748204 119.74397629 -8.076185 118.91883026 -8.07759094 118.06867981 C-8.07967339 115.23675974 -8.07313637 112.40493872 -8.06564331 109.57302856 C-8.06442474 108.59130676 -8.06320618 107.60958496 -8.06195068 106.59811401 C-8.03095742 84.73594261 -7.78755835 62.87470498 -7.53447723 41.01417923 C-7.50304509 38.2518965 -7.47327483 35.4896 -7.44387817 32.72729492 C-7.39673735 28.3368493 -7.34433536 23.94649665 -7.28782845 19.55616188 C-7.2673921 17.91261569 -7.24861396 16.269048 -7.23153496 14.62546349 C-7.20765195 12.36587292 -7.17764026 10.10644716 -7.14596558 7.84695435 C-7.1304213 6.56974518 -7.11487701 5.29253601 -7.09886169 3.97662354 C-6.8161254 -1.10041403 -4.52388468 0.0165115 0 0 Z " fill="#371250" transform="translate(423.9406433105469,86.86447143554688)"/>
<path d="M0 0 C8.89250116 -0.20881011 17.78415515 -0.3685793 26.67857552 -0.46630955 C30.80906051 -0.51322417 34.93786511 -0.5768137 39.06738281 -0.67895508 C43.05514811 -0.77696954 47.04130101 -0.83060074 51.03017807 -0.85389519 C52.54941067 -0.87048706 54.0685578 -0.90289203 55.58710098 -0.95157051 C67.47473134 -1.31737827 67.47473134 -1.31737827 71.26702881 1.95803833 C73.89095377 5.7885457 75.60816896 9.73270583 76.40234375 14.328125 C77.08547934 17.38214292 78.22249681 19.92492206 79.5625 22.75 C82 27.91501416 82 27.91501416 82 29 C88.93 29 95.86 29 103 29 C102.67 26.03 102.34 23.06 102 20 C104.22825644 22.22825644 104.69239369 23.65761628 105.625 26.625 C105.88539063 27.44226563 106.14578125 28.25953125 106.4140625 29.1015625 C106.60742188 29.72804687 106.80078125 30.35453125 107 31 C101.70475989 31.88254002 96.61351314 32.15308122 91.25 32.125 C90.11884766 32.13080078 90.11884766 32.13080078 88.96484375 32.13671875 C85.71797795 32.13095167 83.10112935 32.03370978 80 31 C78.55452941 28.36728456 77.28322697 25.7969284 76.0625 23.0625 C75.70986084 22.29357422 75.35722168 21.52464844 74.99389648 20.73242188 C72.73966201 15.7769612 70.61091442 10.7832347 68.69140625 5.6875 C68.12555664 3.99681397 68.12555664 3.99681397 67 3 C64.97505769 2.90590521 62.9468013 2.88256878 60.91967773 2.88647461 C59.61840439 2.88655014 58.31713104 2.88662567 56.97642517 2.88670349 C55.54548098 2.89181091 54.11453718 2.89702692 52.68359375 2.90234375 C51.2277074 2.90420797 49.77182043 2.90563185 48.31593323 2.90663147 C44.47720621 2.91045635 40.63851681 2.92028636 36.79980469 2.93133545 C32.88542184 2.94155022 28.97103294 2.94612923 25.05664062 2.95117188 C17.37107657 2.96190866 9.68554355 2.97898471 2 3 C1.67725098 3.74161377 1.35450195 4.48322754 1.02197266 5.24731445 C-0.44070323 8.60368489 -1.90779666 11.95810637 -3.375 15.3125 C-3.88289062 16.47974609 -4.39078125 17.64699219 -4.9140625 18.84960938 C-5.40390625 19.96787109 -5.89375 21.08613281 -6.3984375 22.23828125 C-6.84880371 23.26993408 -7.29916992 24.30158691 -7.76318359 25.36450195 C-9 28 -9 28 -11 31 C-12.84710693 31.50334167 -12.84710693 31.50334167 -15.06152344 31.67260742 C-15.86875854 31.73684906 -16.67599365 31.8010907 -17.50769043 31.86727905 C-21.34530865 32.07164063 -25.17267039 32.20136944 -29.015625 32.23828125 C-29.83448181 32.246353 -30.65333862 32.25442474 -31.49700928 32.26274109 C-33.21120155 32.27645504 -34.92541967 32.28723277 -36.63964844 32.29516602 C-38.38712608 32.3067701 -40.13456604 32.32735218 -41.88183594 32.35668945 C-44.42667331 32.39929382 -46.97047578 32.41551323 -49.515625 32.42578125 C-50.2927887 32.44328934 -51.06995239 32.46079742 -51.8706665 32.47883606 C-55.57984371 32.46399874 -57.74702097 32.16131534 -60.90405273 30.14819336 C-63.30019393 27.69232307 -65.03258859 25.18161879 -66.8125 22.25 C-67.41707031 21.26515625 -68.02164063 20.2803125 -68.64453125 19.265625 C-69.09183594 18.51796875 -69.53914062 17.7703125 -70 17 C-69.34 16.67 -68.68 16.34 -68 16 C-64 21.75 -64 21.75 -64 24 C-63.38125 24.268125 -62.7625 24.53625 -62.125 24.8125 C-60 26 -60 26 -58 29 C-55.98390612 29.39855075 -55.98390612 29.39855075 -53.64208984 29.2487793 C-52.74130707 29.22853195 -51.84052429 29.20828461 -50.91244507 29.18742371 C-49.45144882 29.13138725 -49.45144882 29.13138725 -47.9609375 29.07421875 C-46.46694931 29.03455742 -46.46694931 29.03455742 -44.94277954 28.99409485 C-41.75292366 28.90612932 -38.56418061 28.79705018 -35.375 28.6875 C-33.21618607 28.62426234 -31.0573315 28.56239561 -28.8984375 28.50195312 C-23.59838389 28.35055643 -18.29909281 28.18180776 -13 28 C-12.34 26.68 -11.68 25.36 -11 24 C-10.34 24 -9.68 24 -9 24 C-8.896875 23.319375 -8.79375 22.63875 -8.6875 21.9375 C-8.04115186 19.17583069 -7.11361197 16.75203126 -5.95996094 14.16772461 C-4.72591598 11.38108036 -3.55994219 8.56829223 -2.390625 5.75390625 C-1.94235352 4.67568604 -1.49408203 3.59746582 -1.03222656 2.48657227 C-0.6915918 1.66600342 -0.35095703 0.84543457 0 0 Z " fill="#35114C" transform="translate(689,184)"/>
<path d="M0 0 C4.96622349 -0.02465098 9.93241166 -0.04283649 14.89868164 -0.05493164 C16.58944316 -0.0599719 18.28020029 -0.06680405 19.97094727 -0.07543945 C22.39600707 -0.08751857 24.82100944 -0.09323123 27.24609375 -0.09765625 C28.38672523 -0.10539818 28.38672523 -0.10539818 29.55039978 -0.11329651 C31.3673257 -0.11349238 33.18413127 -0.06197277 35 0 C40.89726867 5.89726867 36 16.66000266 36 25 C14.88 25.33 -6.24 25.66 -28 26 C-28 33.92 -28 41.84 -28 50 C-28.66 50 -29.32 50 -30 50 C-30.02892857 46.04168191 -30.04677427 42.08339083 -30.0625 38.125 C-30.07087891 36.99707031 -30.07925781 35.86914062 -30.08789062 34.70703125 C-30.09111328 33.63066406 -30.09433594 32.55429688 -30.09765625 31.4453125 C-30.10289307 30.45031738 -30.10812988 29.45532227 -30.11352539 28.43017578 C-30 26 -30 26 -29 24 C-25.79652541 22.93217514 -23.51812177 22.87941694 -20.15161133 22.88647461 C-18.35008354 22.88658791 -18.35008354 22.88658791 -16.51216125 22.88670349 C-14.5667469 22.89444542 -14.5667469 22.89444542 -12.58203125 22.90234375 C-11.24110466 22.90420923 -9.90017739 22.90563252 -8.55924988 22.90663147 C-5.03290927 22.91044644 -1.50660996 22.92026801 2.01971436 22.93133545 C5.61925701 22.9415715 9.21880635 22.94613379 12.81835938 22.95117188 C19.87892474 22.9618912 26.93945533 22.97947975 34 23 C34 16.07 34 9.14 34 2 C22.78 2 11.56 2 0 2 C0 1.34 0 0.68 0 0 Z " fill="#371553" transform="translate(469,139)"/>
<path d="M0 0 C5.94 0 11.88 0 18 0 C17.15788723 5.8947894 16.35996418 8.89912542 13.83984375 14.01953125 C13.19886143 15.34514325 12.55941334 16.67149803 11.92138672 17.99853516 C11.59837585 18.66596741 11.27536499 19.33339966 10.94256592 20.02105713 C8.63289126 24.87028211 6.54136826 29.82068936 4.40426636 34.74765015 C2.90226465 38.2090118 1.39251031 41.66698961 -0.1171875 45.125 C-0.43242874 45.84721237 -0.74766998 46.56942474 -1.07246399 47.31352234 C-6.66617652 60.11525095 -12.36250239 72.87182223 -18.05273438 85.63085938 C-19.66111054 89.23794743 -21.26522415 92.84691274 -22.86805725 96.45646667 C-24.06544735 99.15132714 -25.26559414 101.84495311 -26.46652222 104.53823853 C-27.28905021 106.38485408 -28.10855907 108.2328135 -28.92797852 110.08081055 C-29.42225342 111.187229 -29.91652832 112.29364746 -30.42578125 113.43359375 C-30.85286377 114.39322021 -31.27994629 115.35284668 -31.7199707 116.34155273 C-33.00129016 119.00267949 -34.44037538 121.4935112 -36 124 C-36.33 122.68 -36.66 121.36 -37 120 C-36.34 120 -35.68 120 -35 120 C-34.8865625 119.113125 -34.773125 118.22625 -34.65625 117.3125 C-34.00812156 114.04099455 -33.09355717 111.90381528 -31.5 109 C-27.92620833 102.13728412 -25.08536301 95.02417433 -22.24804688 87.83007812 C-20.1639474 82.60687323 -17.8607553 77.83750037 -15 73 C-14.0949156 70.9280086 -14.0949156 70.9280086 -13.5 69.0625 C-12.51944561 66.30104683 -11.40855409 63.72806958 -10.0625 61.125 C-8.58461753 58.25813025 -7.33932824 55.38747385 -6.1875 52.375 C-4.05413847 46.88921321 -1.38927391 41.71071538 1.31640625 36.4921875 C2.79423016 33.42681725 4.0035061 30.41178119 5.1628418 27.22216797 C6.83095946 22.7942861 8.74980372 18.46819655 10.625 14.125 C11.03234375 13.17625 11.4396875 12.2275 11.859375 11.25 C14.84470663 4.31058673 14.84470663 4.31058673 16 2 C10.72 2 5.44 2 0 2 C0 1.34 0 0.68 0 0 Z " fill="#371451" transform="translate(383,87)"/>
<path d="M0 0 C-0.58910156 0.29390625 -1.17820312 0.5878125 -1.78515625 0.890625 C-4.31745334 2.40218484 -6.10486405 3.7292135 -8 6 C-9.03580943 10.37614162 -8.57943605 13.81033806 -7 18 C-4.15000218 21.42728949 -0.69077081 23.5504148 3 26 C4.14035912 26.95018786 5.27016924 27.91314041 6.390625 28.88671875 C9.80037393 31.75868373 12.93999482 34.10533091 17 36 C20.40720314 35.45217518 22.49180762 34.2837713 25.41796875 32.484375 C29.60372223 30.07804169 33.33305821 30.09009311 38 31 C45.97703703 33.75231102 50.38033459 37.58629833 54.6484375 44.77734375 C56.19950467 48.47569756 55.99239793 50.6658776 55.6875 54.625 C55.82368624 58.39014905 56.05736234 60.93401048 58.60449219 63.81445312 C63.04732962 67.70759451 67.95336201 70.945389 73 74 C71.515 74.495 71.515 74.495 70 75 C67.7015789 73.46870656 65.62689323 71.93004335 63.5 70.1875 C62.34426377 69.2636798 61.18803034 68.34048121 60.03125 67.41796875 C59.0309375 66.62003906 58.030625 65.82210937 57 65 C55.515 64.01 55.515 64.01 54 63 C53.62890625 59.8046875 53.62890625 59.8046875 53.5625 55.875 C53.31954676 49.88096594 52.87747652 44.79419621 49 40 C43.71112456 35.43233485 37.71766155 34.01675543 30.875 33.625 C26.41399269 34.05671038 24.64210661 35.52026784 21 38 C16.66681677 38.60816607 14.76965476 38.491269 11.0625 36.125 C9 34 9 34 9 32 C8.319375 31.773125 7.63875 31.54625 6.9375 31.3125 C3.3011291 29.68773854 -0.02829263 27.67196743 -3 25 C-3 24.34 -3 23.68 -3 23 C-3.598125 22.87625 -4.19625 22.7525 -4.8125 22.625 C-7 22 -7 22 -10 20 C-10.41403125 17.44779306 -10.64865041 15.12760984 -10.75 12.5625 C-10.79253906 11.88123047 -10.83507812 11.19996094 -10.87890625 10.49804688 C-11.04613773 7.33613315 -11.01013963 5.03041888 -10 2 C-3.73913043 -1.24637681 -3.73913043 -1.24637681 0 0 Z " fill="#401B5A" transform="translate(87,97)"/>
<path d="M0 0 C2.3125 -0.3125 2.3125 -0.3125 5 0 C6.625 2.125 6.625 2.125 8 5 C8.5775 6.010625 9.155 7.02125 9.75 8.0625 C11 11 11 11 10 15 C8.02 10.71 6.04 6.42 4 2 C3.34 2 2.68 2 2 2 C-5.72090107 17.69838798 -12.28791457 33.84904443 -19 50 C-4.48 50 10.04 50 25 50 C22.04205178 43.17723084 22.04205178 43.17723084 19.07617188 36.35791016 C18.52799805 35.08633057 18.52799805 35.08633057 17.96875 33.7890625 C17.59169922 32.91975098 17.21464844 32.05043945 16.82617188 31.15478516 C16 29 16 29 16 27 C16.66 27 17.32 27 18 27 C18.39832031 28.03640625 18.79664063 29.0728125 19.20703125 30.140625 C19.74186248 31.5105436 20.27703684 32.88032828 20.8125 34.25 C21.07353516 34.93191406 21.33457031 35.61382812 21.60351562 36.31640625 C23.04916335 39.99299182 24.58219073 42.85039089 27 46 C27.25 49.1875 27.25 49.1875 27 52 C25.22608154 53.77391846 22.86410722 53.12843597 20.50196838 53.13894653 C19.72917038 53.1369223 18.95637238 53.13489807 18.16015625 53.1328125 C17.36403427 53.13376923 16.56791229 53.13472595 15.74766541 53.13571167 C14.05369997 53.13639416 12.35973194 53.13453513 10.66577148 53.13037109 C8.10459279 53.12508685 5.54359461 53.13028053 2.98242188 53.13671875 C-5.07882339 53.1396782 -12.99080751 53.03503411 -21 52 C-20.55662606 44.94632371 -17.65029786 39.11853918 -14.75 32.75 C-14.27175781 31.68136719 -13.79351563 30.61273438 -13.30078125 29.51171875 C-11.87715443 26.33652939 -10.44096824 23.16735283 -9 20 C-8.54020752 18.98832764 -8.08041504 17.97665527 -7.60668945 16.93432617 C-6.77767832 15.11074672 -5.94802482 13.28745902 -5.11743164 11.46459961 C-3.38927409 7.65298711 -1.69181793 3.82785621 0 0 Z " fill="#371451" transform="translate(721,111)"/>
<path d="M0 0 C0.66 0.33 1.32 0.66 2 1 C1.13375 1.56654297 1.13375 1.56654297 0.25 2.14453125 C-4.39906382 5.48559315 -4.39906382 5.48559315 -6.42578125 10.59765625 C-6.34914124 12.47665795 -6.24281254 14.3546448 -6.109375 16.23046875 C-5.85939727 22.56026205 -8.27201178 27.46730681 -12.1875 32.3125 C-17.08331375 37.47573215 -22.7821096 40.51210433 -29.92578125 41.1015625 C-36.42794479 40.78318914 -41.88510546 37.80338312 -47 34 C-46.01 33.505 -46.01 33.505 -45 33 C-43.56002885 33.59205425 -42.1471602 34.2504858 -40.75 34.9375 C-34.24457699 37.71327434 -27.95595072 37.36082741 -21 37 C-21 36.34 -21 35.68 -21 35 C-18.525 34.505 -18.525 34.505 -16 34 C-16 33.34 -16 32.68 -16 32 C-15.34 32 -14.68 32 -14 32 C-13.71125 31.278125 -13.4225 30.55625 -13.125 29.8125 C-12 27 -12 27 -10.8984375 24.78515625 C-9.74139053 21.19831065 -10.16605987 18.36664736 -10.5 14.625 C-10.66116251 7.75544801 -10.66116251 7.75544801 -7.78125 4.46484375 C-5.25106932 2.7342286 -2.7838818 1.2776029 0 0 Z " fill="#421C5C" transform="translate(150,223)"/>
<path d="M0 0 C0.66 0.33 1.32 0.66 2 1 C0.12652029 3.59326347 -1.75349589 6.18120855 -3.64453125 8.76171875 C-5.23346424 10.93266391 -6.78785211 13.12362559 -8.32421875 15.33203125 C-9.08347656 16.39808594 -9.84273437 17.46414062 -10.625 18.5625 C-11.31851563 19.55378906 -12.01203125 20.54507813 -12.7265625 21.56640625 C-16.06296829 25.13785093 -18.79017648 25.87937108 -23.63427734 26.14379883 C-26.71770034 26.19704832 -29.79156519 26.17436534 -32.875 26.125 C-33.94492187 26.11597656 -35.01484375 26.10695312 -36.1171875 26.09765625 C-38.74502439 26.07419342 -41.37239406 26.04136459 -44 26 C-43.28839233 22.85635166 -42.38003448 20.84004598 -40.4375 18.25 C-39.98246094 17.63640625 -39.52742187 17.0228125 -39.05859375 16.390625 C-38.70925781 15.93171875 -38.35992188 15.4728125 -38 15 C-37.31292445 17.49064888 -37 19.37886292 -37 22 C-30.07 22.33 -23.14 22.66 -16 23 C-16 22.01 -16 21.02 -16 20 C-15.34 20 -14.68 20 -14 20 C-14 19.34 -14 18.68 -14 18 C-13.34 18 -12.68 18 -12 18 C-11.89171875 17.43152344 -11.7834375 16.86304688 -11.671875 16.27734375 C-9.78849727 9.89356923 -4.83736561 4.41053923 0 0 Z " fill="#331149" transform="translate(571,190)"/>
<path d="M0 0 C2.875 1.375 2.875 1.375 5 3 C5 3.66 5 4.32 5 5 C5.66 5 6.32 5 7 5 C7 5.99 7 6.98 7 8 C7.66 8 8.32 8 9 8 C9.30820681 12.46899881 9.32571772 15.20051105 7.625 19.375 C4.37850036 22.62149964 1.9578333 23.3542713 -2.51953125 24.015625 C-6.36635373 23.99139305 -8.29726515 22.63343396 -11 20 C-11.875 17.75 -11.875 17.75 -12 16 C-12.66 16 -13.32 16 -14 16 C-15.10855614 11.34406423 -15.24214764 8.29744965 -13 4 C-9.08289879 0.66015581 -5.16094762 -0.78536159 0 0 Z M-10.5625 5.0625 C-12.36478899 8.74543837 -12.57957768 10.94295625 -12 15 C-10.20437595 17.75329021 -8.94745078 19.52627461 -6 21 C-1.70677141 21.48602588 0.32082639 21.46241608 3.9375 19 C6.23002646 15.66541605 6.76531782 13.89968738 6.47265625 9.9375 C5.59426669 6.33682874 4.05067422 4.99227704 1 3 C-3.61102353 1.99903048 -6.8347532 2.06211843 -10.5625 5.0625 Z " fill="#3F185C" transform="translate(187,182)"/>
<path d="M0 0 C0.33 0.66 0.66 1.32 1 2 C1.78375 2.28875 2.5675 2.5775 3.375 2.875 C6.48867031 4.20943013 7.42658398 5.01050955 9 8 C9.93270477 11.74623567 10.43448831 14.8413645 9.0625 18.5 C8.5365625 19.2425 8.5365625 19.2425 8 20 C7.34 20 6.68 20 6 20 C6 20.66 6 21.32 6 22 C0.76579213 25.27137992 -2.16605611 25.10643764 -8 24 C-8 23.34 -8 22.68 -8 22 C-10.475 21.01 -10.475 21.01 -13 20 C-14.44267751 10.07507396 -14.44267751 10.07507396 -12.6875 5.8125 C-11.8521875 4.9153125 -11.8521875 4.9153125 -11 4 C-10.34 4 -9.68 4 -9 4 C-9 3.34 -9 2.68 -9 2 C-6.03 1.34 -3.06 0.68 0 0 Z M-10 6 C-12.15879198 8.64942653 -12.09478727 10.78316283 -11.8125 14.0625 C-11.4137512 16.58634533 -11.12098346 17.82952331 -9.625 19.9375 C-5.88804628 22.38089282 -2.33060927 22.30390241 2 22 C5.1850357 20.23984869 5.83296972 19.50109084 7 16 C7.38887761 11.80012182 7.45908323 9.70392762 5.125 6.125 C2.60135348 3.60135348 1.73263343 3.06512297 -1.8125 2.75 C-5.44165156 3.03463934 -7.14296165 3.77785906 -10 6 Z " fill="#40195C" transform="translate(122,226)"/>
<path d="M0 0 C5.45265625 1.66918049 7.71942636 6.66011427 10.5 11.375 C12.5145988 14.67894204 14.89709385 17.62616139 17.2890625 20.6640625 C20.82135054 25.19223792 24.4315852 29.82183232 27.0625 34.9375 C26.5675 35.9275 26.5675 35.9275 26.0625 36.9375 C20.02201915 29.83856631 14.794753 22.29017982 9.63208008 14.53979492 C7.03065542 10.66614356 4.57793787 7.06043752 1.0625 3.9375 C-1.98250205 5.25894658 -3.66724423 6.5081142 -5.59375 9.203125 C-6.29177734 10.16798828 -6.29177734 10.16798828 -7.00390625 11.15234375 C-7.47699219 11.82394531 -7.95007813 12.49554688 -8.4375 13.1875 C-8.91058594 13.84363281 -9.38367188 14.49976563 -9.87109375 15.17578125 C-12.64545121 19.04143721 -15.32109259 22.96352271 -17.9375 26.9375 C-18.5975 26.2775 -19.2575 25.6175 -19.9375 24.9375 C-19.32261719 24.12925781 -18.70773437 23.32101563 -18.07421875 22.48828125 C-17.25768287 21.40895222 -16.44128389 20.32951962 -15.625 19.25 C-15.22087891 18.71955078 -14.81675781 18.18910156 -14.40039062 17.64257812 C-12.03469548 14.50755122 -9.89873945 11.33849326 -7.9375 7.9375 C-4.07306409 1.29991407 -4.07306409 1.29991407 0 0 Z " fill="#371751" transform="translate(591.9375,163.0625)"/>
<path d="M0 0 C3.71353115 1.09527133 3.71353115 1.09527133 7.3125 0.0625 C7.869375 -0.288125 8.42625 -0.63875 9 -1 C9 1 9 1 7.875 2.625 C5.13480763 4.6344744 3.32760435 4.39931252 0 4 C-2.75 2.5625 -2.75 2.5625 -5 1 C-8.79415671 -0.89707836 -12.8768983 -0.60870304 -17 0 C-23.64260251 2.81979423 -28.95568514 6.65118475 -32.07421875 13.28515625 C-34.63843504 20.80469346 -33.39415526 28.06411752 -30 35 C-30.33 35.99 -30.66 36.98 -31 38 C-35.51911553 31.73154942 -36.2320311 25.65702631 -36 18 C-34.84174506 11.10172061 -31.7564623 5.76122428 -26.0390625 1.55859375 C-17.03856318 -4.31347922 -9.86109285 -3.5284513 0 0 Z " fill="#3D185A" transform="translate(67,89)"/>
<path d="M0 0 C3.70610868 0.81801498 5.39730327 2.56173113 7.6015625 5.57421875 C7.9315625 5.90421875 8.2615625 6.23421875 8.6015625 6.57421875 C8.70042603 8.19674367 8.73127417 9.82369148 8.7265625 11.44921875 C8.73042969 12.77566406 8.73042969 12.77566406 8.734375 14.12890625 C8.56378777 17.26971812 8.16402225 19.04425667 5.84375 21.23046875 C1.94877314 23.5647406 -2.0091222 23.33457258 -6.3984375 22.57421875 C-9.51845254 20.88603426 -11.78891221 18.79326934 -13.3984375 15.57421875 C-13.95278268 10.12315778 -13.73126262 6.25433839 -10.22265625 1.87109375 C-7.00933148 -0.41332557 -3.82706133 -0.23209941 0 0 Z M-8.8359375 3.51171875 C-11.37173183 6.85896727 -11.72492074 10.43876435 -11.3984375 14.57421875 C-9.63340436 17.49565292 -8.43996115 19.05345692 -5.3984375 20.57421875 C-1.06516576 21.06477782 0.92156594 21.05166314 4.5390625 18.51171875 C7.1259456 14.82737009 7.23307449 12.9948027 6.6015625 8.57421875 C4.85427472 4.8461841 4.85427472 4.8461841 1.6015625 2.57421875 C-3.74512936 2.2191781 -3.74512936 2.2191781 -8.8359375 3.51171875 Z " fill="#41185B" transform="translate(186.3984375,99.42578125)"/>
<path d="M0 0 C2 1.8125 2 1.8125 4 4 C4 4.99 4 5.98 4 7 C4.66 7 5.32 7 6 7 C6.23074219 7.72445312 6.46148437 8.44890625 6.69921875 9.1953125 C8.68235567 15.07417689 10.34870285 19.79168353 15 24 C20.04185646 25.20698988 25.21399917 25.28090091 30.375 25.5 C36.30350149 25.75407864 42.11958949 26.18890889 48 27 C48 27.33 48 27.66 48 28 C21.71586943 30.06836379 21.71586943 30.06836379 13.4375 26.4375 C7.02589256 20.02589256 3.31782109 11.3344578 0 3 C0 2.01 0 1.02 0 0 Z " fill="#350F51" transform="translate(292,187)"/>
<path d="M0 0 C1.09570312 0.00902344 2.19140625 0.01804687 3.3203125 0.02734375 C4.16335937 0.03894531 5.00640625 0.05054687 5.875 0.0625 C5.875 1.0525 5.875 2.0425 5.875 3.0625 C7.195 3.7225 8.515 4.3825 9.875 5.0625 C9.90203381 6.99992341 9.92141125 8.93745479 9.9375 10.875 C9.94910156 11.95394531 9.96070312 13.03289062 9.97265625 14.14453125 C9.875 17.0625 9.875 17.0625 8.875 20.0625 C4.60751087 22.88531575 -0.19753339 22.86779794 -5.125 22.0625 C-7.94924288 19.87227082 -9.54008603 18.23232793 -11.125 15.0625 C-11.67430958 9.68560433 -11.66685108 5.42170132 -8.125 1.0625 C-5.36047967 -0.31976016 -3.0788637 -0.03275387 0 0 Z M-7.125 4.0625 C-9.34425086 7.39137629 -9.88390933 9.20186508 -9.6015625 13.125 C-8.72776841 16.67747432 -7.1088283 18.07328114 -4.125 20.0625 C-1.28623251 20.76074523 1.03696242 20.76628755 3.875 20.0625 C7.02158666 18.16600449 7.02158666 18.16600449 8.875 15.0625 C9.44667363 11.06078457 9.24438628 8.83485314 7.5 5.1875 C6.04739958 2.96585175 6.04739958 2.96585175 3.875 2.0625 C-2.00064294 1.46829157 -2.00064294 1.46829157 -7.125 4.0625 Z " fill="#401A5B" transform="translate(55.125,99.9375)"/>
<path d="M0 0 C0.66 0 1.32 0 2 0 C0.27644317 3.85432764 -2.15926509 7.16092664 -4.625 10.5625 C-5.06432861 11.17730225 -5.50365723 11.79210449 -5.95629883 12.42553711 C-8.07883913 15.38728364 -10.22801795 18.31697914 -12.47265625 21.1875 C-13.56900391 22.610625 -13.56900391 22.610625 -14.6875 24.0625 C-15.35136719 24.89910156 -16.01523437 25.73570312 -16.69921875 26.59765625 C-18.20939026 28.90908847 -18.20939026 28.90908847 -17.93359375 31.484375 C-16.81652663 34.49438014 -15.32631348 36.63723122 -13.375 39.1875 C-10.51929 42.98136744 -7.7128903 46.78979639 -5 50.6875 C-4.4225 51.51636719 -3.845 52.34523437 -3.25 53.19921875 C-2.8375 53.79347656 -2.425 54.38773438 -2 55 C-2.33 55.66 -2.66 56.32 -3 57 C-16 42.41463415 -16 42.41463415 -16 38 C-16.66 38 -17.32 38 -18 38 C-18 37.34 -18 36.68 -18 36 C-18.66 36 -19.32 36 -20 36 C-20.33 33.03 -20.66 30.06 -21 27 C-20.34 27 -19.68 27 -19 27 C-18.67 26.01 -18.34 25.02 -18 24 C-17.34 24 -16.68 24 -16 24 C-15.9175 23.44441406 -15.835 22.88882813 -15.75 22.31640625 C-14.7593767 19.25682491 -13.06962044 17.38778277 -11 14.9375 C-7.91442409 11.30384196 -7.91442409 11.30384196 -6 7 C-5.34 7 -4.68 7 -4 7 C-3.71125 6.401875 -3.4225 5.80375 -3.125 5.1875 C-2 3 -2 3 0 0 Z " fill="#371550" transform="translate(632,120)"/>
<path d="M0 0 C4.10403363 -0.08694042 8.20783129 -0.14037149 12.3125 -0.1875 C13.47974609 -0.21263672 14.64699219 -0.23777344 15.84960938 -0.26367188 C16.96787109 -0.27333984 18.08613281 -0.28300781 19.23828125 -0.29296875 C20.26993408 -0.3086792 21.30158691 -0.32438965 22.36450195 -0.34057617 C25 0 25 0 26.76586914 1.33886719 C28.64211461 3.86428245 29.82658154 6.57407958 31.125 9.4375 C31.41632813 10.07913086 31.70765625 10.72076172 32.0078125 11.38183594 C32.65126722 12.80078765 33.29207993 14.22093952 33.93066406 15.64208984 C35.09757693 18.21515935 36.29356352 20.77358903 37.4921875 23.33203125 C38.32860719 25.13779756 39.16454985 26.94378492 40 28.75 C40.41008301 29.61939209 40.82016602 30.48878418 41.24267578 31.38452148 C41.61634277 32.20122314 41.99000977 33.0179248 42.375 33.859375 C42.71273437 34.58608398 43.05046875 35.31279297 43.3984375 36.06152344 C44 38 44 38 43 41 C38.31694783 31.95481548 34.00576043 22.94180349 30.421875 13.40234375 C29.95265625 12.27957031 29.4834375 11.15679687 29 10 C28.68603271 9.03344482 28.68603271 9.03344482 28.36572266 8.04736328 C27.47499514 5.85596165 26.77516233 4.57894549 25 3 C20.9660713 1.94998295 17.02531167 1.97572917 12.875 2 C11.76511719 1.97550781 10.65523438 1.95101562 9.51171875 1.92578125 C4.08713785 1.60377812 4.08713785 1.60377812 -1 3 C-0.67 2.01 -0.34 1.02 0 0 Z " fill="#3C1753" transform="translate(248,87)"/>
<path d="M0 0 C2.625 2.3125 2.625 2.3125 5 5 C5 5.99 5 6.98 5 8 C3.02 6.68 1.04 5.36 -1 4 C-2.35350594 4.62469505 -3.6808418 5.30570621 -5 6 C-6.051875 6.515625 -7.10375 7.03125 -8.1875 7.5625 C-11.73412565 10.63624223 -11.50230183 11.96427998 -11.86743164 16.40795898 C-12.09501564 20.857792 -12.1440656 25.29500478 -12.125 29.75 C-12.12886719 30.66910156 -12.13273437 31.58820313 -12.13671875 32.53515625 C-12.13478516 33.87126953 -12.13478516 33.87126953 -12.1328125 35.234375 C-12.13168457 36.03069336 -12.13055664 36.82701172 -12.12939453 37.64746094 C-11.9886716 40.20596318 -11.66419069 42.52371532 -11 45 C-8.95767537 46.88366524 -8.95767537 46.88366524 -6.4375 48.3125 C-5.61121094 48.82425781 -4.78492187 49.33601563 -3.93359375 49.86328125 C-3.29550781 50.23839844 -2.65742187 50.61351562 -2 51 C-2.99 51.495 -2.99 51.495 -4 52 C-7.3 50.35 -10.6 48.7 -14 47 C-14 34.46 -14 21.92 -14 9 C-13.34 9 -12.68 9 -12 9 C-12 8.34 -12 7.68 -12 7 C-10.35443434 5.96564444 -8.6829392 4.97236487 -7 4 C-6.113125 3.278125 -5.22625 2.55625 -4.3125 1.8125 C-2 0 -2 0 0 0 Z " fill="#3B1959" transform="translate(74,125)"/>
<path d="M0 0 C2.15533178 0.37160893 3.82522518 0.89893973 5.72265625 1.99609375 C13.6933017 5.5097402 23.83217878 4.27720361 32 2 C28.13893015 6.47408331 24.8629547 7.08554543 19.171875 7.890625 C15.16755817 8.02870489 12.07137867 7.23672627 8.3515625 5.82421875 C5.44428103 4.80522142 3.09744578 4.12642636 0 4 C-2.9622149 5.75644876 -2.9622149 5.75644876 -5.625 8.3125 C-11.41223404 13.47562057 -11.41223404 13.47562057 -15 15 C-14.64880827 12.16582109 -14.21508776 11.18351911 -12.00390625 9.296875 C-11.19824219 8.78640625 -10.39257812 8.2759375 -9.5625 7.75 C-8.35787109 6.96882813 -8.35787109 6.96882813 -7.12890625 6.171875 C-5 5 -5 5 -3 5 C-2.690625 4.360625 -2.38125 3.72125 -2.0625 3.0625 C-1 1 -1 1 0 0 Z " fill="#431A5B" transform="translate(102,81)"/>
<path d="M0 0 C0.66 0.33 1.32 0.66 2 1 C-2.75 5 -2.75 5 -5 5 C-5.14845558 10.05358014 -5.25726186 15.10588883 -5.32958984 20.16113281 C-5.35974161 21.88010771 -5.4006713 23.59892902 -5.45263672 25.31738281 C-5.52553181 27.79009864 -5.55946901 30.26077994 -5.5859375 32.734375 C-5.61690521 33.50118591 -5.64787292 34.26799683 -5.67977905 35.05804443 C-5.74643355 37.51984893 -5.74643355 37.51984893 -5 41 C-2.12590397 43.57480495 -2.12590397 43.57480495 1 45 C0.34 45.66 -0.32 46.32 -1 47 C-1 46.34 -1 45.68 -1 45 C-2.175625 45.061875 -2.175625 45.061875 -3.375 45.125 C-6 45 -6 45 -8 43 C-8.17539436 40.05903263 -8.23132375 37.21346651 -8.1953125 34.2734375 C-8.1924826 33.41062164 -8.18965271 32.54780579 -8.18673706 31.65884399 C-8.17552333 28.8974228 -8.15041684 26.1363235 -8.125 23.375 C-8.11497173 21.50521301 -8.10584562 19.63542095 -8.09765625 17.765625 C-8.07558012 13.17695891 -8.04104234 8.58853407 -8 4 C-6.71349294 3.30289269 -5.42059335 2.61757124 -4.125 1.9375 C-3.40570313 1.55464844 -2.68640625 1.17179688 -1.9453125 0.77734375 C-1.30335938 0.52082031 -0.66140625 0.26429688 0 0 Z " fill="#41195C" transform="translate(197,129)"/>
<path d="M0 0 C8.66340419 -0.90839578 8.66340419 -0.90839578 11.70703125 1.16015625 C13 2.6875 13 2.6875 15 6 C15.495 6.763125 15.99 7.52625 16.5 8.3125 C17.28311758 12.52175699 16.00276667 16.26056852 14 20 C11.75357249 22.22163251 10.44939213 22.9334717 7.30859375 23.3984375 C6.36113281 23.39070313 5.41367188 23.38296875 4.4375 23.375 C3.01244141 23.38660156 3.01244141 23.38660156 1.55859375 23.3984375 C-1.34090496 22.94691251 -2.2179046 22.26812142 -4 20 C-3.505 18.515 -3.505 18.515 -3 17 C-2.29875 17.495 -1.5975 17.99 -0.875 18.5 C2.51250333 20.26739304 4.2335258 20.6277457 8 20 C11.1235883 18.21013047 11.1235883 18.21013047 13 15 C13.42244096 10.84114161 12.98650661 7.30218873 10.4375 3.9375 C6.8552808 2.55972339 3.82600906 2.80869955 0 3 C0 2.01 0 1.02 0 0 Z " fill="#3F175D" transform="translate(115,141)"/>
<path d="M0 0 C1.5625409 2.34381135 2.71867879 4.40687677 3.875 6.94140625 C4.22046875 7.68970703 4.5659375 8.43800781 4.921875 9.20898438 C5.64210436 10.7812242 6.36084893 12.35414503 7.078125 13.92773438 C7.42359375 14.67474609 7.7690625 15.42175781 8.125 16.19140625 C8.43695313 16.87404541 8.74890625 17.55668457 9.0703125 18.26000977 C9.9896572 20.18328203 9.9896572 20.18328203 12 22 C14.86976283 22.83483326 14.86976283 22.83483326 18 22 C21.81250981 17.79345985 23.93375528 12.21998667 26 7 C26.33 7 26.66 7 27 7 C27.40925879 13.82097978 25.88268159 17.45284255 21.875 22.875 C18.4436691 25.4112011 16.35242085 25.92904303 12.140625 25.6640625 C9.48175293 24.83922992 8.75681477 24.00494297 7.25 21.6875 C6.46285496 20.14337924 5.71607393 18.57833595 5 17 C4.30197266 15.62908203 4.30197266 15.62908203 3.58984375 14.23046875 C1.12223073 9.20588625 -0.29156697 5.68139065 0 0 Z " fill="#361550" transform="translate(310,168)"/>
<path d="M0 0 C2.5 1.375 2.5 1.375 5 3 C5 3.66 5 4.32 5 5 C7.33163378 5.67258667 9.6652039 6.33847444 12 7 C12.66 7.20625 13.32 7.4125 14 7.625 C20.60283726 8.86303199 26.95248581 7.95911626 32.625 4.3125 C35 3 35 3 37.8125 3.3125 C38.534375 3.539375 39.25625 3.76625 40 4 C40 4.66 40 5.32 40 6 C40.66 6.33 41.32 6.66 42 7 C39 7 39 7 36.8125 6.75 C33.93806783 7.00550508 32.72462117 7.57473645 30.25 8.9375 C24.85020686 11.75346689 20.20293951 12.71820788 14.1953125 11.37109375 C8.04761908 9.38017407 4.05596375 7.04254953 0 2 C0 1.34 0 0.68 0 0 Z " fill="#441862" transform="translate(100,166)"/>
<path d="M0 0 C0.33 0 0.66 0 1 0 C0.49113245 6.12282573 -1.50494379 10.85694591 -4.125 16.375 C-4.94633462 18.14736229 -5.76530687 19.92082105 -6.58203125 21.6953125 C-6.99018066 22.5812207 -7.39833008 23.46712891 -7.81884766 24.37988281 C-9.88151427 28.95543843 -11.759151 33.60478133 -13.61572266 38.26708984 C-15.51088305 42.97825659 -17.68453151 47.47956261 -20 52 C-20.66 52 -21.32 52 -22 52 C-19.54406358 43.97264598 -16.16681718 36.43465957 -12.6875 28.8125 C-11.56434306 26.34077634 -10.44375639 23.8678961 -9.32421875 21.39453125 C-8.91331497 20.48805344 -8.91331497 20.48805344 -8.49411011 19.56326294 C-5.56685086 13.08309952 -2.77497889 6.54663613 0 0 Z " fill="#36144E" transform="translate(688,131)"/>
<path d="M0 0 C0.66 0.66 1.32 1.32 2 2 C1.67 2.33 1.34 2.66 1 3 C45.55 3.495 45.55 3.495 91 4 C91 4.33 91 4.66 91 5 C60.64 5 30.28 5 -1 5 C-0.67 3.35 -0.34 1.7 0 0 Z " fill="#3C135A" transform="translate(419,209)"/>
<path d="M0 0 C0.66 0 1.32 0 2 0 C0.60070124 6.01698466 -1.91673578 11.34472882 -4.5625 16.9140625 C-6.02553999 19.91979216 -6.02553999 19.91979216 -6.9921875 22.84765625 C-7.32476563 23.55792969 -7.65734375 24.26820313 -8 25 C-11.125 25.8125 -11.125 25.8125 -14 26 C-14.33 24.68 -14.66 23.36 -15 22 C-15.66 22 -16.32 22 -17 22 C-17.86625 20.453125 -17.86625 20.453125 -18.75 18.875 C-20.68979442 15.47343193 -22.79209563 12.23300283 -25 9 C-24.67 8.34 -24.34 7.68 -24 7 C-22.98679687 8.33804688 -22.98679687 8.33804688 -21.953125 9.703125 C-21.05224025 10.88553624 -20.1511898 12.06782124 -19.25 13.25 C-18.58484375 14.12978516 -18.58484375 14.12978516 -17.90625 15.02734375 C-15.4487493 18.24377849 -12.95317252 21.21242594 -10 24 C-9.75507812 23.20335937 -9.51015625 22.40671875 -9.2578125 21.5859375 C-7.70119498 17.14812729 -5.80863629 12.90906344 -3.875 8.625 C-3.50246094 7.79355469 -3.12992188 6.96210938 -2.74609375 6.10546875 C-1.83326454 4.06915745 -0.91784402 2.03405461 0 0 Z " fill="#361451" transform="translate(665,184)"/>
<path d="M0 0 C0.93423645 3.01031744 1.04449911 3.86650268 0 7 C-0.66 7 -1.32 7 -2 7 C-3.23573778 10.70721333 -2.86599945 14.01069848 -2.625 17.875 C-2.60498197 24.33415021 -2.60498197 24.33415021 -4.16796875 26.96875 C-6.01621956 28.549202 -7.91430426 29.74715887 -10 31 C-11.98637035 32.448506 -13.96527251 33.90729582 -15.9375 35.375 C-17.62287647 36.58629346 -19.30964667 37.79566146 -21 39 C-21.66 38.67 -22.32 38.34 -23 38 C-21.46091043 36.74682826 -19.91859134 35.4976225 -18.375 34.25 C-17.51648438 33.55390625 -16.65796875 32.8578125 -15.7734375 32.140625 C-13 30 -13 30 -9.69921875 28.1796875 C-6.66941968 26.21428296 -6.66941968 26.21428296 -6.37109375 22.6796875 C-6.39300781 21.42414063 -6.41492188 20.16859375 -6.4375 18.875 C-6.3568877 11.98096902 -5.09490985 5.09490985 0 0 Z " fill="#44195C" transform="translate(102,47)"/>
<path d="M0 0 C0.99 0.33 1.98 0.66 3 1 C2.67 1.66 2.34 2.32 2 3 C1.74445089 6.44991293 1.65839759 9.13460723 2.9375 12.375 C6.2677857 14.99886146 9.83447284 15.28623876 14 15 C16.70558862 13.79504081 16.70558862 13.79504081 18 11 C18.59722746 8.00356565 18.86965201 5.05014301 19 2 C19.33 2 19.66 2 20 2 C20.6130031 11.72291022 20.6130031 11.72291022 18.5 16.125 C15.11929763 18.66052678 12.19036765 19.18891002 8 19 C5.5 18.0625 5.5 18.0625 4 17 C4 16.34 4 15.68 4 15 C3.360625 14.71125 2.72125 14.4225 2.0625 14.125 C0 13 0 13 -1 11 C-1.23188406 3.69565217 -1.23188406 3.69565217 0 0 Z " fill="#41195A" transform="translate(45,187)"/>
<path d="M0 0 C4.59966059 1.4525244 4.59966059 1.4525244 6.15185547 3.57519531 C7.36577347 7.04572889 7.24560511 10.417466 7.1953125 14.046875 C7.1924826 14.81807678 7.18965271 15.58927856 7.18673706 16.3838501 C7.17557013 18.83939332 7.15047229 21.2945676 7.125 23.75 C7.11496568 25.41796347 7.10584061 27.08593268 7.09765625 28.75390625 C7.07564225 32.83607897 7.04113667 36.917977 7 41 C6.34 41 5.68 41 5 41 C4.9906543 39.92516357 4.98130859 38.85032715 4.97167969 37.74291992 C4.93181586 33.75616972 4.86606827 29.7701942 4.79248047 25.78393555 C4.76424969 24.05845082 4.7430456 22.33283626 4.72900391 20.60717773 C4.70760258 18.12676426 4.66097083 15.6479151 4.609375 13.16796875 C4.60814636 12.39599655 4.60691772 11.62402435 4.60565186 10.82865906 C4.58300766 8.39119563 4.58300766 8.39119563 4 5 C2.08822424 3.08768792 2.08822424 3.08768792 0 2 C0 1.34 0 0.68 0 0 Z " fill="#401A5C" transform="translate(172,130)"/>
<path d="M0 0 C5.08632669 4.35970859 8.67701086 8.24483694 11.625 14.25 C11.625 15.57 11.625 16.89 11.625 18.25 C10.965 18.25 10.305 18.25 9.625 18.25 C9.41746094 17.59773438 9.20992187 16.94546875 8.99609375 16.2734375 C6.31618547 8.67101986 3.08379256 4.42985414 -4.1875 0.875 C-8.56333374 0.01699339 -12.94707495 -0.42953305 -17.375 0.25 C-18.73320741 1.21594534 -20.07084927 2.212229 -21.375 3.25 C-23.625 2.9375 -23.625 2.9375 -25.375 2.25 C-18.27426851 -3.99864371 -8.20389685 -4.25387244 0 0 Z " fill="#3F1858" transform="translate(195.375,88.75)"/>
<path d="M0 0 C4.71974669 3.90599726 6.59570951 8.50889701 7.2890625 14.49609375 C7.58615364 23.36831556 4.46989001 28.86534424 -1.28125 35.3984375 C-3 37 -3 37 -6 38 C-4.87219868 35.2317604 -3.76636328 33.77834465 -1.5625 31.6875 C2.67417766 27.24415514 4.16694371 22.99628045 4.3125 16.9375 C4.1398077 11.52647458 3.02058078 7.53087117 0 3 C0 2.01 0 1.02 0 0 Z " fill="#411D59" transform="translate(72,177)"/>
<path d="M0 0 C5.9715505 1.93197222 10.27548257 5.24067525 13.3125 10.6875 C16.71613482 18.30992589 16.42064747 25.11301429 13.984375 32.96875 C13 35 13 35 10 37 C10.28740942 35.62410383 10.58017742 34.24932678 10.875 32.875 C11.05160156 32.04613281 11.22820312 31.21726562 11.41015625 30.36328125 C12 28 12 28 13.3125 25.0625 C14.36856141 20.35822646 12.8790845 16.36293182 11 12 C10.00847089 10.66035534 9.00998631 9.32578484 8 8 C8 7.34 8 6.68 8 6 C7.236875 5.7525 6.47375 5.505 5.6875 5.25 C2.7635955 3.89004442 1.69995644 2.68414174 0 0 Z " fill="#45225B" transform="translate(128,42)"/>
<path d="M0 0 C7.91369091 2.3925112 7.91369091 2.3925112 11 5 C11.42017953 8.03532674 11.51747191 10.48001808 11.375 13.5 C11.35501953 14.32991455 11.33503906 15.1598291 11.31445312 16.01489258 C11.24036791 18.67870658 11.12536567 21.3381328 11 24 C10.96036133 24.9079834 10.92072266 25.8159668 10.87988281 26.75146484 C10.63745402 32.17120282 10.339542 37.58551782 10 43 C9.01 43 8.02 43 7 43 C7.495 42.505 7.495 42.505 8 42 C8.36432271 37.1047603 8.44241886 32.20783452 8.51489258 27.30053711 C8.54646707 25.65040575 8.59415523 24.00049906 8.65844727 22.35131836 C9.39325862 12.96907919 9.39325862 12.96907919 6.17919922 4.58349609 C4.17154487 3.10177192 2.26472643 2.02610929 0 1 C0 0.67 0 0.34 0 0 Z " fill="#411A5D" transform="translate(39,129)"/>
<path d="M0 0 C0.33 0.99 0.66 1.98 1 3 C0.04504326 4.69287785 -0.9590934 6.35857037 -2 8 C-3.67230296 13.43782866 -4.24161912 19.23750488 -1.87109375 24.51171875 C1.14846139 29.28151211 4.19126994 32.13766068 9 35 C9 35.66 9 36.32 9 37 C3.7391118 36.22060916 0.35424044 32.8023543 -2.8125 28.75 C-6.50030767 22.52170259 -5.92412726 14.93806313 -5 8 C-3.67079171 4.69989666 -2.30120912 2.76145094 0 0 Z " fill="#3E1956" transform="translate(37,178)"/>
<path d="M0 0 C6 2 6 2 8.75 3.0625 C12.44051137 4.12707059 15.54187059 4.1973232 19.375 4.125 C21.24285156 4.09792969 21.24285156 4.09792969 23.1484375 4.0703125 C24.08945313 4.04710937 25.03046875 4.02390625 26 4 C26 3.34 26 2.68 26 2 C28.31 1.34 30.62 0.68 33 0 C28.88156198 5.07940689 24.47823446 7.08531479 18 8 C11.1248526 7.76149564 5.34709326 5.28663622 0 1 C0 0.67 0 0.34 0 0 Z " fill="#3B1753" transform="translate(103,256)"/>
<path d="M0 0 C1.31291016 0.02707031 2.62582031 0.05414063 3.97851562 0.08203125 C7.21650979 0.1526784 10.45116958 0.25129434 13.6875 0.375 C13.3575 1.365 13.0275 2.355 12.6875 3.375 C11.48420044 3.3435791 11.48420044 3.3435791 10.2565918 3.31152344 C6.62952152 3.22848684 3.00265094 3.17637796 -0.625 3.125 C-1.88763672 3.09148437 -3.15027344 3.05796875 -4.45117188 3.0234375 C-5.65966797 3.01054688 -6.86816406 2.99765625 -8.11328125 2.984375 C-9.22872314 2.96342773 -10.34416504 2.94248047 -11.4934082 2.92089844 C-14.44339476 3.10027631 -14.44339476 3.10027631 -16.19995117 5.39941406 C-16.56709229 6.05135742 -16.9342334 6.70330078 -17.3125 7.375 C-17.9725 7.045 -18.6325 6.715 -19.3125 6.375 C-14.94770267 -1.71739798 -8.38391822 -0.3258324 0 0 Z " fill="#35154A" transform="translate(644.3125,86.625)"/>
<path d="M0 0 C4.06236402 -0.08729047 8.12448589 -0.14048992 12.1875 -0.1875 C13.91323242 -0.22520508 13.91323242 -0.22520508 15.67382812 -0.26367188 C17.34155273 -0.27817383 17.34155273 -0.27817383 19.04296875 -0.29296875 C20.06414795 -0.3086792 21.08532715 -0.32438965 22.13745117 -0.34057617 C26.38969107 0.16534064 29.01428811 1.87832785 31.8125 5.0625 C33 7 33 7 33 9 C29.21503862 7.48601545 28.9927802 6.9855604 27 3 C18.09 2.67 9.18 2.34 0 2 C0 1.34 0 0.68 0 0 Z " fill="#38144F" transform="translate(529,87)"/>
<path d="M0 0 C2.5396137 2.5396137 3.66230258 5.41013074 5.07421875 8.65234375 C5.36230911 9.30828018 5.65039948 9.96421661 5.94721985 10.64002991 C6.55400798 12.02674014 7.15820912 13.41458484 7.76000977 14.8034668 C8.6843972 16.93036086 9.62397812 19.05010154 10.56445312 21.16992188 C11.15198579 22.51781803 11.73860548 23.86611258 12.32421875 25.21484375 C12.60746506 25.84929916 12.89071136 26.48375458 13.18254089 27.13743591 C15.11440847 31.6567746 15.11440847 31.6567746 14 35 C5.85319473 18.99619675 5.85319473 18.99619675 5 12 C4.34 12 3.68 12 3 12 C2.49440092 10.56445975 1.9957251 9.1264798 1.5 7.6875 C1.2215625 6.88699219 0.943125 6.08648437 0.65625 5.26171875 C0 3 0 3 0 0 Z " fill="#361350" transform="translate(767,149)"/>
<path d="M0 0 C0.66 0.33 1.32 0.66 2 1 C0.89932004 1.81721717 -0.20569731 2.62859451 -1.3125 3.4375 C-1.92738281 3.88996094 -2.54226562 4.34242188 -3.17578125 4.80859375 C-8.39137992 8.21492693 -15.03379818 7.54046769 -21 7 C-24.04152012 5.96660518 -26.25794063 4.72050784 -29 3 C-26 2 -26 2 -23.7421875 2.9140625 C-18.08889087 5.15283239 -10.28894871 5.28022596 -4.6015625 3.06640625 C-3.02779013 2.10686993 -1.50680207 1.06161055 0 0 Z " fill="#41195A" transform="translate(199,210)"/>
<path d="M0 0 C0.68707555 2.49064888 1 4.37886292 1 7 C7.27 7.33 13.54 7.66 20 8 C20 8.33 20 8.66 20 9 C13.4 9 6.8 9 0 9 C0 9.66 0 10.32 0 11 C-1.98 11 -3.96 11 -6 11 C-5.39305845 7.84669446 -4.3583335 5.81111133 -2.4375 3.25 C-1.98246094 2.63640625 -1.52742187 2.0228125 -1.05859375 1.390625 C-0.70925781 0.93171875 -0.35992188 0.4728125 0 0 Z " fill="#3C145E" transform="translate(533,205)"/>
<path d="M0 0 C1.22589844 0.01353516 1.22589844 0.01353516 2.4765625 0.02734375 C3.41628906 0.04474609 3.41628906 0.04474609 4.375 0.0625 C4.375 0.7225 4.375 1.3825 4.375 2.0625 C5.303125 2.2171875 5.303125 2.2171875 6.25 2.375 C8.375 3.0625 8.375 3.0625 10.375 6.0625 C11.84621951 13.07908537 11.84621951 13.07908537 9.9375 17.0625 C9.421875 17.7225 8.90625 18.3825 8.375 19.0625 C7.715 18.7325 7.055 18.4025 6.375 18.0625 C6.725625 17.381875 7.07625 16.70125 7.4375 16 C8.63609504 12.2444022 8.35991662 9.86146412 7.375 6.0625 C5.85605194 3.96485835 5.85605194 3.96485835 3.375 3.0625 C-0.3691664 2.79975148 -3.06028609 2.87426203 -6.625 4.0625 C-6.625 3.0725 -6.625 2.0825 -6.625 1.0625 C-4.21954362 -0.14022819 -2.67503047 -0.03821472 0 0 Z " fill="#401758" transform="translate(119.625,52.9375)"/>
<path d="M0 0 C0.33 0.66 0.66 1.32 1 2 C0.34 3.093125 -0.32 4.18625 -1 5.3125 C-4.02781836 11.04335344 -3.16817852 16.80462566 -2 23 C-1.17514533 25.2037162 -0.20628272 26.9712518 1 29 C0.67 29.66 0.34 30.32 0 31 C-5.798135 24.07964532 -5.74058017 17.82849519 -5 9 C-3.91619855 5.64021551 -2.54625734 2.54625734 0 0 Z " fill="#401857" transform="translate(101,223)"/>
<path d="M0 0 C2 1.8125 2 1.8125 4 4 C4 4.99 4 5.98 4 7 C4.66 7 5.32 7 6 7 C6.23074219 7.72445312 6.46148437 8.44890625 6.69921875 9.1953125 C8.70479076 15.14068407 10.61324234 19.49138796 15 24 C14.01 24.33 13.02 24.66 12 25 C0 8.53191489 0 8.53191489 0 0 Z " fill="#3B1756" transform="translate(292,187)"/>
<path d="M0 0 C2.81962165 2.60614872 4.95334682 5.57433573 7.1875 8.6875 C7.90292969 9.68136719 8.61835937 10.67523438 9.35546875 11.69921875 C9.89816406 12.45847656 10.44085937 13.21773437 11 14 C11.763125 13.21625 12.52625 12.4325 13.3125 11.625 C16 9 16 9 19 7 C17.80100302 10.0831351 16.52299523 13.06279492 15 16 C12.875 16.4375 12.875 16.4375 10 16 C5.58987614 12.21022605 2.61250683 7.12453262 0 2 C0 1.34 0 0.68 0 0 Z " fill="#3B1555" transform="translate(581,122)"/>
<path d="M0 0 C0.33 0 0.66 0 1 0 C1.21914062 1.0621875 1.43828125 2.124375 1.6640625 3.21875 C3.43412728 11.27349638 5.01868411 17.93893323 11 24 C10.67 24.66 10.34 25.32 10 26 C2.40287832 18.04952382 -0.27704377 13.27020194 -0.0703125 2.1953125 C-0.04710937 1.47085938 -0.02390625 0.74640625 0 0 Z " fill="#441A5F" transform="translate(160,105)"/>
<path d="M0 0 C3.89505813 0.80824606 6.51703782 2.11142956 9.5234375 4.71484375 C12.22888737 8.9018495 11.80810543 13.79891774 11.83203125 18.63671875 C11.71865102 22.13319272 11.71865102 22.13319272 14 25 C13.625 27.1875 13.625 27.1875 13 29 C10.21874598 24.27478047 9.77483799 20.99907129 9.875 15.5625 C9.70895819 10.05730016 9.70895819 10.05730016 6.94140625 5.50390625 C4.69548124 3.81858655 2.43635496 2.38798404 0 1 C0 0.67 0 0.34 0 0 Z " fill="#401A5B" transform="translate(86,137)"/>
<path d="M0 0 C0.99 0 1.98 0 3 0 C3.42695251 7.96978021 1.72117998 14.43140177 -3 21 C-3.66 21 -4.32 21 -5 21 C-4.53343674 18.48055838 -3.93731079 16.90596619 -2.5 14.75 C-0.76534903 11.56980655 -0.51016117 9.28493329 -0.3125 5.6875 C-0.24675781 4.61886719 -0.18101562 3.55023438 -0.11328125 2.44921875 C-0.07589844 1.64097656 -0.03851563 0.83273438 0 0 Z " fill="#461E65" transform="translate(205,107)"/>
<path d="M0 0 C3.84597638 3.58255334 4.82062 7.09857195 5.3125 12.3125 C4.92666838 16.86531308 3.61854354 20.7513232 2 25 C1.67 25 1.34 25 1 25 C1.09539062 23.94941406 1.19078125 22.89882812 1.2890625 21.81640625 C1.92012785 14.12272127 2.27399789 7.49081659 0 0 Z " fill="#411C5D" transform="translate(203,181)"/>
<path d="M0 0 C1.21236328 0.30744141 1.21236328 0.30744141 2.44921875 0.62109375 C3.51785156 0.89050781 4.58648437 1.15992188 5.6875 1.4375 C7.27111328 1.83775391 7.27111328 1.83775391 8.88671875 2.24609375 C13.88847776 3.52932634 13.88847776 3.52932634 19 4 C18.34 5.32 17.68 6.64 17 8 C14.03 7.505 14.03 7.505 11 7 C11 6.34 11 5.68 11 5 C7.7 4.34 4.4 3.68 1 3 C0.67 2.01 0.34 1.02 0 0 Z " fill="#3E1A5A" transform="translate(119,214)"/>
<path d="M0 0 C2.5 1.375 2.5 1.375 5 3 C5 3.66 5 4.32 5 5 C5.721875 5.28875 6.44375 5.5775 7.1875 5.875 C8.90831685 6.56332674 10.61980777 7.27640076 12.3125 8.03125 C15.21951239 9.07912656 17.73666904 9.40265077 20.8125 9.625 C22.27623047 9.73714844 22.27623047 9.73714844 23.76953125 9.8515625 C24.50558594 9.90054688 25.24164063 9.94953125 26 10 C26 10.33 26 10.66 26 11 C18.38879304 12.49728661 12.91622118 11.59686194 6 8 C3.54083775 6.14144084 1.95553317 4.4312034 0 2 C0 1.34 0 0.68 0 0 Z " fill="#3A194D" transform="translate(100,166)"/>
<path d="M0 0 C3.20707631 4.06370628 5.15707177 8.35714887 7.25 13.0625 C7.81460937 14.28549805 7.81460937 14.28549805 8.390625 15.53320312 C8.74125 16.31759766 9.091875 17.10199219 9.453125 17.91015625 C9.77442383 18.62308838 10.09572266 19.33602051 10.42675781 20.07055664 C11 22 11 22 10 25 C4.82421875 14.6484375 4.82421875 14.6484375 3.90307617 12.79638672 C3.04749885 11.09448405 2.16511759 9.40613357 1.28125 7.71875 C-0.06182283 4.86881496 -0.2740483 3.10588069 0 0 Z " fill="#3B1A55" transform="translate(292,128)"/>
<path d="M0 0 C1.4540625 0.0309375 1.4540625 0.0309375 2.9375 0.0625 C2.6075 1.0525 2.2775 2.0425 1.9375 3.0625 C0.2875 2.7325 -1.3625 2.4025 -3.0625 2.0625 C-3.24425781 2.64257812 -3.42601562 3.22265625 -3.61328125 3.8203125 C-5.1043106 8.45397293 -6.74583576 12.76012355 -9.0625 17.0625 C-9.7225 17.0625 -10.3825 17.0625 -11.0625 17.0625 C-6.15974473 0.12570908 -6.15974473 0.12570908 0 0 Z " fill="#381453" transform="translate(379.0625,86.9375)"/>
<path d="M0 0 C0 0.33 0 0.66 0 1 C-1.03640625 1.06058594 -2.0728125 1.12117188 -3.140625 1.18359375 C-4.51042873 1.26803371 -5.88021975 1.35267997 -7.25 1.4375 C-8.27287109 1.49647461 -8.27287109 1.49647461 -9.31640625 1.55664062 C-12.64448041 1.76666472 -15.80255402 2.01934002 -19 3 C-19 3.66 -19 4.32 -19 5 C-20.98 5.33 -22.96 5.66 -25 6 C-18.98139029 -1.58868181 -8.82451219 -2.13927568 0 0 Z " fill="#3A1651" transform="translate(128,41)"/>
<path d="M0 0 C1.39403199 4.42080007 -0.06903658 6.99234006 -2 11 C-2.89837115 12.97801601 -3.79409118 14.95723771 -4.6875 16.9375 C-5.45759075 18.62533901 -6.22816965 20.31295579 -7 22 C-7.66 22 -8.32 22 -9 22 C-6.66062389 14.33204498 -3.45231194 7.22862726 0 0 Z " fill="#381552" transform="translate(346,153)"/>
<path d="M0 0 C0.66 0 1.32 0 2 0 C2 0.66 2 1.32 2 2 C3.32 1.67 4.64 1.34 6 1 C6 1.99 6 2.98 6 4 C2.3558226 6.4294516 0.28758728 6.16179575 -4 6 C-2.84826645 3.53199953 -1.95216435 1.95216435 0 0 Z " fill="#3D165D" transform="translate(340,208)"/>
<path d="M0 0 C2.31 0 4.62 0 7 0 C1.66666667 4 -3.66666667 8 -9 12 C-9.66 11.67 -10.32 11.34 -11 11 C-10.0409375 10.5978125 -10.0409375 10.5978125 -9.0625 10.1875 C-6.66868314 9.11332248 -6.66868314 9.11332248 -6 6 C-4.35360035 4.64172029 -2.68704193 3.30745749 -1 2 C-0.67 1.34 -0.34 0.68 0 0 Z " fill="#3F1A57" transform="translate(163,211)"/>
<path d="M0 0 C0.99 0.33 1.98 0.66 3 1 C3.33 2.98 3.66 4.96 4 7 C4.99 7.33 5.98 7.66 7 8 C8.36133698 11.93275129 9.25616878 15.90892832 10 20 C7.34775596 18.67387798 7.17021042 17.46293183 6.0546875 14.74609375 C5.70019531 13.89208984 5.34570312 13.03808594 4.98046875 12.15820312 C4.61566406 11.26037109 4.25085938 10.36253906 3.875 9.4375 C3.50246094 8.53580078 3.12992187 7.63410156 2.74609375 6.70507812 C1.82469328 4.47245391 0.90963984 2.23743586 0 0 Z " fill="#3F1B5B" transform="translate(276,153)"/>
<path d="M0 0 C0.8852947 2.47544187 1.09093521 3.71011262 0.29296875 6.25390625 C-0.07183594 7.01574219 -0.43664062 7.77757813 -0.8125 8.5625 C-1.34810547 9.70912109 -1.34810547 9.70912109 -1.89453125 10.87890625 C-3 13 -3 13 -5 16 C-5.70164642 17.98799818 -6.37372872 19.98698517 -7 22 C-7.66 22 -8.32 22 -9 22 C-6.66062389 14.33204498 -3.45231194 7.22862726 0 0 Z " fill="#3D1658" transform="translate(367,105)"/>
<path d="M0 0 C0.66 0.66 1.32 1.32 2 2 C1.34 2 0.68 2 0 2 C-0.24492187 2.61359375 -0.48984375 3.2271875 -0.7421875 3.859375 C-2.25052285 6.42635567 -3.44256788 7.03857904 -6.125 8.25 C-6.84945312 8.58515625 -7.57390625 8.9203125 -8.3203125 9.265625 C-9.15175781 9.62914062 -9.15175781 9.62914062 -10 10 C-10 9.01 -10 8.02 -10 7 C-7.8125 5.17578125 -7.8125 5.17578125 -5 3.3125 C-3.6078125 2.37857422 -3.6078125 2.37857422 -2.1875 1.42578125 C-1.1046875 0.72001953 -1.1046875 0.72001953 0 0 Z " fill="#401B5E" transform="translate(154,205)"/>
<path d="M0 0 C0.66 0.33 1.32 0.66 2 1 C3.87379605 1.07033769 5.75001102 1.0843022 7.625 1.0625 C8.62789062 1.05347656 9.63078125 1.04445313 10.6640625 1.03515625 C11.43492188 1.02355469 12.20578125 1.01195313 13 1 C11.5625 3.0625 11.5625 3.0625 9 5 C5.92416977 5.05823431 3.01264352 4.59222907 0 4 C-0.33 3.01 -0.66 2.02 -1 1 C-0.67 0.67 -0.34 0.34 0 0 Z " fill="#40175A" transform="translate(113,71)"/>
<path d="M0 0 C2.9375 1.5 2.9375 1.5 5 3 C4.67 3.99 4.34 4.98 4 6 C3.5978125 5.51015625 3.195625 5.0203125 2.78125 4.515625 C0.52984255 2.59995375 -0.58685742 2.65289525 -3.5 2.75 C-4.2734375 2.76546875 -5.046875 2.7809375 -5.84375 2.796875 C-8.1822807 2.93528295 -8.1822807 2.93528295 -11 4 C-10.67 3.01 -10.34 2.02 -10 1 C-6.42365687 -0.19211438 -3.75935317 -0.25926574 0 0 Z " fill="#3A195B" transform="translate(59,183)"/>
<path d="M0 0 C0.33 0.99 0.66 1.98 1 3 C-0.2684375 3.8353125 -0.2684375 3.8353125 -1.5625 4.6875 C-5.10127989 7.04387134 -8.54991268 9.51593713 -12 12 C-12.66 11.67 -13.32 11.34 -14 11 C-12.41728767 9.72839334 -10.83380365 8.45774715 -9.25 7.1875 C-8.36828125 6.47980469 -7.4865625 5.77210937 -6.578125 5.04296875 C-4.41007071 3.32494998 -2.22271099 1.64626024 0 0 Z " fill="#3B1954" transform="translate(93,74)"/>
<path d="M0 0 C0.33 0.99 0.66 1.98 1 3 C-0.328125 5.12109375 -0.328125 5.12109375 -2.25 7.4375 C-2.87390625 8.19933594 -3.4978125 8.96117187 -4.140625 9.74609375 C-5.06101562 10.86177734 -5.06101562 10.86177734 -6 12 C-7.00760879 13.32759267 -8.01029325 14.65900845 -9 16 C-9.66 15.67 -10.32 15.34 -11 15 C-7.37 10.05 -3.74 5.1 0 0 Z " fill="#35154F" transform="translate(545,189)"/>
<path d="M0 0 C0.62109375 1.828125 0.62109375 1.828125 1 4 C-0.9375 6.75 -0.9375 6.75 -3 9 C-2.01 9.33 -1.02 9.66 0 10 C0 10.33 0 10.66 0 11 C-1.98 11 -3.96 11 -6 11 C-5.39305845 7.84669446 -4.3583335 5.81111133 -2.4375 3.25 C-1.98246094 2.63640625 -1.52742187 2.0228125 -1.05859375 1.390625 C-0.70925781 0.93171875 -0.35992188 0.4728125 0 0 Z " fill="#341845" transform="translate(533,205)"/>
<path d="M0 0 C-0.83144531 0.39638672 -0.83144531 0.39638672 -1.6796875 0.80078125 C-5.17018757 2.60479391 -8.44032166 4.75373494 -11.7578125 6.85546875 C-12.86769531 7.42201172 -12.86769531 7.42201172 -14 8 C-14.66 7.67 -15.32 7.34 -16 7 C-14.73299277 6.0158875 -13.4612381 5.03788503 -12.1875 4.0625 C-11.47980469 3.51722656 -10.77210937 2.97195312 -10.04296875 2.41015625 C-6.68210628 0.09032575 -3.97296003 -0.1073773 0 0 Z " fill="#421E5A" transform="translate(118,215)"/>
<path d="M0 0 C0.99 0 1.98 0 3 0 C4.859375 2.5546875 4.859375 2.5546875 6.75 5.875 C7.38421875 6.96554688 8.0184375 8.05609375 8.671875 9.1796875 C9.11015625 10.11039063 9.5484375 11.04109375 10 12 C9.67 12.66 9.34 13.32 9 14 C7.49412261 12.04594482 5.99521356 10.08718716 4.5 8.125 C4.07074219 7.56941406 3.64148438 7.01382813 3.19921875 6.44140625 C0 2.2265625 0 2.2265625 0 0 Z " fill="#431D5E" transform="translate(529,89)"/>
<path d="M0 0 C0.33 0.99 0.66 1.98 1 3 C0.3503125 4.051875 0.3503125 4.051875 -0.3125 5.125 C-2.53992244 8.91986787 -3.20536664 12.70897985 -4 17 C-4.33 17 -4.66 17 -5 17 C-5.74521523 9.84593383 -4.34707015 5.69776694 0 0 Z " fill="#431D60" transform="translate(37,178)"/>
<path d="M0 0 C3.2531655 3.74114033 5.44374911 8.31315138 7 13 C6.67 13.66 6.34 14.32 6 15 C2.47086025 9.98627748 0.38528505 6.16456078 0 0 Z " fill="#3E1753" transform="translate(303,153)"/>
<path d="M0 0 C4.59306496 1.4859916 7.43569245 3.85014682 11 7 C10.67 8.32 10.34 9.64 10 11 C9.773125 10.21625 9.54625 9.4325 9.3125 8.625 C7.6522552 5.30451041 6.38689874 5.2391093 3 4 C1.1875 1.875 1.1875 1.875 0 0 Z " fill="#3C174F" transform="translate(128,42)"/>
<path d="M0 0 C0.66 0.33 1.32 0.66 2 1 C1.73958333 2.98567708 1.47916667 4.97135417 1.21875 6.95703125 C0.946767 9.15471706 0.946767 9.15471706 1 12 C0.01 12 -0.98 12 -2 12 C-2.28571429 3.42857143 -2.28571429 3.42857143 0 0 Z " fill="#40195D" transform="translate(110,146)"/>
<path d="M0 0 C4.62 0 9.24 0 14 0 C14 0.33 14 0.66 14 1 C10.04 1 6.08 1 2 1 C2.99 2.65 3.98 4.3 5 6 C4.34 6.66 3.68 7.32 3 8 C0 2.25 0 2.25 0 0 Z " fill="#4F1B76" transform="translate(250,90)"/>
<path d="M0 0 C3.3125 -0.3125 3.3125 -0.3125 7 0 C9 2.3125 9 2.3125 10 5 C9 8 9 8 7 10 C6.67 7.36 6.34 4.72 6 2 C3.69 2 1.38 2 -1 2 C-0.67 1.34 -0.34 0.68 0 0 Z " fill="#4F1B74" transform="translate(266,89)"/>
<path d="M0 0 C1.98 0.99 1.98 0.99 4 2 C4 5.96 4 9.92 4 14 C2.02 14.99 2.02 14.99 0 16 C0.33 15.484375 0.66 14.96875 1 14.4375 C2.73856373 10.19975091 2.45990674 6.35097604 1 2.0625 C0.67 1.381875 0.34 0.70125 0 0 Z " fill="#3C1952" transform="translate(61,103)"/>
<path d="M0 0 C3.88433735 3.50843373 3.88433735 3.50843373 4.5 6.125 C4.82698013 8.22075249 4.82698013 8.22075249 7.0625 9.25 C7.701875 9.4975 8.34125 9.745 9 10 C8.01 10.33 7.02 10.66 6 11 C3.69 8.03 1.38 5.06 -1 2 C-0.67 1.34 -0.34 0.68 0 0 Z " fill="#371952" transform="translate(620,200)"/>
<path d="M0 0 C2.625 2.3125 2.625 2.3125 5 5 C5 5.99 5 6.98 5 8 C4.0925 7.38125 3.185 6.7625 2.25 6.125 C-0.14948817 4.55610389 -2.40961612 3.19556179 -5 2 C-2 0 -2 0 0 0 Z " fill="#421960" transform="translate(74,125)"/>
<path d="M0 0 C0.33 0 0.66 0 1 0 C1.31563182 5.26053037 0.66590937 8.44573816 -2 13 C-3.05899758 9.82300727 -2.96817951 9.02723312 -2.125 5.9375 C-1.94195312 5.24527344 -1.75890625 4.55304688 -1.5703125 3.83984375 C-1 2 -1 2 0 0 Z " fill="#3A1453" transform="translate(336,175)"/>
<path d="M0 0 C2.5 1.375 2.5 1.375 5 3 C5 3.66 5 4.32 5 5 C7.475 5.99 7.475 5.99 10 7 C8.203125 7.67578125 8.203125 7.67578125 6 8 C4.296875 6.85546875 4.296875 6.85546875 2.75 5.1875 C2.22921875 4.64480469 1.7084375 4.10210937 1.171875 3.54296875 C0 2 0 2 0 0 Z " fill="#401B59" transform="translate(100,166)"/>
<path d="M0 0 C0.66 0 1.32 0 2 0 C2 1.98 2 3.96 2 6 C0.125 6.625 0.125 6.625 -2 7 C-2.66 6.34 -3.32 5.68 -4 5 C-3.01 4.67 -2.02 4.34 -1 4 C-0.26676204 1.98491642 -0.26676204 1.98491642 0 0 Z " fill="#471668" transform="translate(77,86)"/>
<path d="M0 0 C1.32 0.33 2.64 0.66 4 1 C4 1.66 4 2.32 4 3 C5.98 3 7.96 3 10 3 C10.33 3.66 10.66 4.32 11 5 C8.3125 5.3125 8.3125 5.3125 5 5 C2.125 2.5 2.125 2.5 0 0 Z " fill="#301549" transform="translate(626,211)"/>
<path d="M0 0 C1.65 1.32 3.3 2.64 5 4 C4.67 5.32 4.34 6.64 4 8 C3.34 8 2.68 8 2 8 C2 7.01 2 6.02 2 5 C1.01 4.67 0.02 4.34 -1 4 C-0.67 2.68 -0.34 1.36 0 0 Z " fill="#3A1660" transform="translate(760,189)"/>
<path d="M0 0 C0.33 0.66 0.66 1.32 1 2 C-0.98 4.97 -2.96 7.94 -5 11 C-5.66 10.67 -6.32 10.34 -7 10 C-3.535 5.05 -3.535 5.05 0 0 Z " fill="#361550" transform="translate(553,178)"/>
<path d="M0 0 C2.97903734 2.97903734 4 5.80285329 4 10 C3.01 10 2.02 10 1 10 C0.67 6.7 0.34 3.4 0 0 Z " fill="#35164C" transform="translate(791,204)"/>
<path d="M0 0 C1 3 1 3 0.375 5.5625 C-1.33177722 8.58815053 -2.73058318 9.05358987 -6 10 C-4.07119658 6.59244728 -2.1723491 3.25852365 0 0 Z " fill="#3C1858" transform="translate(613,109)"/>
<path d="M0 0 C1 2 1 2 0.375 4.4375 C-1.27706844 7.51635481 -2.91798591 8.45899296 -6 10 C-4.6302836 6.00499382 -2.74277578 3.19990508 0 0 Z " fill="#36164F" transform="translate(560,168)"/>
<path d="M0 0 C5.94 1.485 5.94 1.485 12 3 C12 3.33 12 3.66 12 4 C3.42857143 4.28571429 3.42857143 4.28571429 0 2 C0 1.34 0 0.68 0 0 Z " fill="#371A4E" transform="translate(111,245)"/>
<path d="M0 0 C0.99 0.33 1.98 0.66 3 1 C0.31158141 3.25245881 -1.64641875 4.88213958 -5 6 C-3.63016497 2.83884224 -3.0109362 2.0072908 0 0 Z " fill="#441C5E" transform="translate(45,88)"/>
</svg>
